<svg width="14" height="21" viewBox="0 0 14 21" fill="none" xmlns="http://www.w3.org/2000/svg">
<g clip-path="url(#clip0_19:664)">
<path fill-rule="evenodd" clip-rule="evenodd" d="M7.77 16.4C7.77026 16.1712 7.86127 15.9518 8.02306 15.79C8.18484 15.6283 8.4042 15.5373 8.633 15.537H9.5C9.72901 15.537 9.94865 15.628 10.1106 15.7899C10.2725 15.9519 10.3635 16.1715 10.3635 16.4005C10.3635 16.6295 10.2725 16.8492 10.1106 17.0111C9.94865 17.173 9.72901 17.264 9.5 17.264H8.637C8.52329 17.2644 8.41061 17.2423 8.30544 17.1991C8.20027 17.1559 8.10466 17.0923 8.02412 17.012C7.94357 16.9318 7.87966 16.8363 7.83605 16.7313C7.79244 16.6263 7.77 16.5137 7.77 16.4ZM3.453 16.4C3.45327 16.1712 3.54428 15.9518 3.70606 15.79C3.86785 15.6283 4.0872 15.5373 4.316 15.537H5.179C5.40802 15.537 5.62765 15.628 5.78959 15.7899C5.95153 15.9519 6.0425 16.1715 6.0425 16.4005C6.0425 16.6295 5.95153 16.8492 5.78959 17.0111C5.62765 17.173 5.40802 17.264 5.179 17.264H4.316C4.08703 17.2637 3.86752 17.1726 3.7057 17.0106C3.54389 16.8486 3.453 16.629 3.453 16.4ZM7.77 12.947C7.77026 12.7182 7.86127 12.4988 8.02306 12.337C8.18484 12.1752 8.4042 12.0842 8.633 12.084H9.5C9.72901 12.084 9.94865 12.175 10.1106 12.3369C10.2725 12.4989 10.3635 12.7185 10.3635 12.9475C10.3635 13.1765 10.2725 13.3962 10.1106 13.5581C9.94865 13.72 9.72901 13.811 9.5 13.811H8.637C8.40803 13.8118 8.1881 13.7217 8.02554 13.5604C7.86297 13.3992 7.77106 13.18 7.77 12.951V12.947ZM3.453 12.947C3.45327 12.7182 3.54428 12.4988 3.70606 12.337C3.86785 12.1752 4.0872 12.0842 4.316 12.084H5.179C5.40802 12.084 5.62765 12.175 5.78959 12.3369C5.95153 12.4989 6.0425 12.7185 6.0425 12.9475C6.0425 13.1765 5.95153 13.3962 5.78959 13.5581C5.62765 13.72 5.40802 13.811 5.179 13.811H4.316C4.08772 13.8107 3.86882 13.7202 3.70712 13.559C3.54541 13.3979 3.45406 13.1793 3.453 12.951V12.947ZM7.77 9.5C7.77026 9.2712 7.86127 9.05186 8.02306 8.89008C8.18484 8.72829 8.4042 8.63729 8.633 8.63702H9.5C9.72901 8.63702 9.94865 8.72795 10.1106 8.88989C10.2725 9.05183 10.3635 9.27147 10.3635 9.50049C10.3635 9.7295 10.2725 9.94915 10.1106 10.1111C9.94865 10.273 9.72901 10.364 9.5 10.364H8.637C8.52329 10.3644 8.41061 10.3423 8.30544 10.2991C8.20027 10.2558 8.10466 10.1923 8.02412 10.112C7.94357 10.0317 7.87966 9.93638 7.83605 9.83136C7.79244 9.72634 7.77 9.61372 7.77 9.5ZM3.453 9.5C3.45327 9.2712 3.54428 9.05186 3.70606 8.89008C3.86785 8.72829 4.0872 8.63729 4.316 8.63702H5.179C5.40802 8.63702 5.62765 8.72795 5.78959 8.88989C5.95153 9.05183 6.0425 9.27147 6.0425 9.50049C6.0425 9.7295 5.95153 9.94915 5.78959 10.1111C5.62765 10.273 5.40802 10.364 5.179 10.364H4.316C4.08703 10.3637 3.86752 10.2726 3.7057 10.1106C3.54389 9.94859 3.453 9.72897 3.453 9.5ZM3.453 5.18298C3.45327 4.95418 3.54428 4.73485 3.70606 4.57306C3.86785 4.41127 4.0872 4.32027 4.316 4.32001H9.5C9.72901 4.32001 9.94865 4.411 10.1106 4.57294C10.2725 4.73487 10.3635 4.95446 10.3635 5.18347C10.3635 5.41249 10.2725 5.63213 10.1106 5.79407C9.94865 5.95601 9.72901 6.047 9.5 6.047H4.32C4.20603 6.04739 4.09312 6.02524 3.98775 5.98181C3.88238 5.93838 3.78664 5.87453 3.70605 5.79395C3.62547 5.71336 3.56162 5.61764 3.51819 5.51227C3.47476 5.4069 3.45261 5.29396 3.453 5.17999V5.18298ZM2.59 1.72998C2.3612 1.73025 2.14184 1.82125 1.98006 1.98303C1.81827 2.14482 1.72726 2.36422 1.727 2.59302V18.134C1.72726 18.3628 1.81827 18.5822 1.98006 18.744C2.14184 18.9057 2.3612 18.9967 2.59 18.997H11.224C11.4528 18.9967 11.6722 18.9057 11.8339 18.744C11.9957 18.5822 12.0867 18.3628 12.087 18.134V2.59003C12.0867 2.36123 11.9957 2.14183 11.8339 1.98004C11.6722 1.81825 11.4528 1.72725 11.224 1.72699L2.59 1.72998ZM0 2.59003C0 1.90312 0.272871 1.24433 0.758591 0.758606C1.24431 0.272887 1.90309 0 2.59 0H11.224C11.9109 0 12.5697 0.272887 13.0554 0.758606C13.5411 1.24433 13.814 1.90312 13.814 2.59003V18.131C13.814 18.8179 13.5411 19.4767 13.0554 19.9624C12.5697 20.4481 11.9109 20.721 11.224 20.721H2.59C1.90309 20.721 1.24431 20.4481 0.758591 19.9624C0.272871 19.4767 0 18.8179 0 18.131V2.59003Z" fill="#6F91A8"/>
</g>
<defs>
<clipPath id="clip0_19:664">
<rect width="13.814" height="20.721" fill="white"/>
</clipPath>
</defs>
</svg>
