<svg width="21" height="17" viewBox="0 0 21 17" fill="none" xmlns="http://www.w3.org/2000/svg">
<g clip-path="url(#clip0_19:656)">
<path fill-rule="evenodd" clip-rule="evenodd" d="M15.692 1.52601C15.692 1.29474 15.7839 1.07293 15.9474 0.909401C16.1109 0.745869 16.3328 0.653999 16.564 0.653999H20.051C20.2823 0.653999 20.5041 0.745869 20.6676 0.909401C20.8311 1.07293 20.923 1.29474 20.923 1.52601V5.01301C20.923 5.24428 20.8311 5.46605 20.6676 5.62959C20.5041 5.79312 20.2823 5.88502 20.051 5.88502C19.8198 5.88502 19.5979 5.79312 19.4344 5.62959C19.2709 5.46605 19.179 5.24428 19.179 5.01301V3.63001L14.309 8.50001C14.1472 8.66186 13.955 8.79022 13.7435 8.87782C13.5321 8.96541 13.3054 9.01051 13.0765 9.01051C12.8476 9.01051 12.621 8.96541 12.4095 8.87782C12.198 8.79022 12.0059 8.66186 11.844 8.50001L9.59004 6.24598L4.97602 10.86C4.81154 11.0187 4.59132 11.1065 4.36274 11.1045C4.13416 11.1025 3.91549 11.0108 3.75385 10.8491C3.59222 10.6875 3.50051 10.4689 3.49848 10.2403C3.49645 10.0117 3.58425 9.7915 3.74299 9.62702L8.357 5.01301C8.51886 4.85115 8.71102 4.72277 8.92249 4.63517C9.13397 4.54757 9.36059 4.50248 9.58949 4.50248C9.81838 4.50248 10.0451 4.54757 10.2565 4.63517C10.468 4.72277 10.6602 4.85115 10.822 5.01301L13.076 7.26698L17.946 2.39701H16.563C16.3321 2.39675 16.1107 2.3049 15.9474 2.14161C15.7841 1.97832 15.6923 1.75693 15.692 1.52601ZM0.872018 0.653999C1.10329 0.653999 1.32506 0.745869 1.4886 0.909401C1.65213 1.07293 1.74403 1.29474 1.74403 1.52601V13.726C1.74403 13.9573 1.83587 14.1791 1.9994 14.3426C2.16293 14.5061 2.38477 14.598 2.61604 14.598H20.051C20.2823 14.598 20.5041 14.6899 20.6676 14.8534C20.8311 15.0169 20.923 15.2387 20.923 15.47C20.923 15.7012 20.8311 15.9231 20.6676 16.0866C20.5041 16.2501 20.2823 16.342 20.051 16.342H2.615C1.92198 16.342 1.2573 16.0669 0.766977 15.5772C0.276655 15.0874 0.00080422 14.423 9.16669e-06 13.73V1.53001C-0.000517668 1.41516 0.0216696 1.30133 0.0652557 1.19508C0.108842 1.08882 0.172951 0.992202 0.253976 0.910805C0.335002 0.829408 0.431305 0.764844 0.537363 0.720772C0.64342 0.6767 0.757168 0.653998 0.872018 0.653999Z" fill="#6F91A8"/>
</g>
<defs>
<clipPath id="clip0_19:656">
<rect width="20.922" height="15.692" fill="white" transform="translate(0 0.653999)"/>
</clipPath>
</defs>
</svg>
