<svg width="21" height="21" viewBox="0 0 21 21" fill="none" xmlns="http://www.w3.org/2000/svg">
<g clip-path="url(#clip0_19:658)">
<path fill-rule="evenodd" clip-rule="evenodd" d="M10.356 11.343C8.26333 11.3433 6.24408 12.1145 4.68418 13.5095C3.12428 14.9045 2.13306 16.8254 1.89994 18.905H18.811C18.5779 16.8256 17.5868 14.9048 16.0271 13.5099C14.4675 12.1149 12.4485 11.3435 10.356 11.343ZM13.9229 10.081C14.8346 9.34342 15.4953 8.34143 15.814 7.21289C16.1327 6.08435 16.0937 4.8848 15.7026 3.7793C15.3114 2.6738 14.5871 1.71671 13.6296 1.03979C12.672 0.362884 11.5281 -0.000610352 10.3554 -0.000610352C9.18277 -0.000610352 8.03897 0.362884 7.0814 1.03979C6.12382 1.71671 5.39959 2.6738 5.0084 3.7793C4.6172 4.8848 4.57825 6.08435 4.89695 7.21289C5.21564 8.34143 5.87627 9.34342 6.78794 10.081C4.95153 10.7527 3.34151 11.9282 2.14237 13.4727C0.943233 15.0173 0.203522 16.8684 0.00797185 18.814C-0.0144348 19.0679 0.0166593 19.3236 0.0992804 19.5648C0.181902 19.8059 0.314235 20.027 0.487647 20.2138C0.66106 20.4006 0.871732 20.5489 1.10606 20.6492C1.34038 20.7495 1.59314 20.7995 1.848 20.796H18.863C19.1178 20.7995 19.3706 20.7495 19.6049 20.6492C19.8392 20.5489 20.0499 20.4006 20.2233 20.2138C20.3967 20.027 20.5291 19.8059 20.6117 19.5648C20.6943 19.3236 20.7254 19.0679 20.703 18.814C20.5075 16.8685 19.7679 15.0174 18.5689 13.4729C17.37 11.9284 15.7602 10.7528 13.924 10.081H13.9229ZM10.356 1.89001C9.60818 1.89001 8.87713 2.11176 8.25535 2.52722C7.63356 2.94268 7.14894 3.53317 6.86277 4.22406C6.57659 4.91495 6.50173 5.67519 6.64762 6.40863C6.79351 7.14207 7.15363 7.81576 7.68241 8.34454C8.21119 8.87333 8.88488 9.23344 9.61832 9.37933C10.3518 9.52522 11.112 9.45036 11.8029 9.16418C12.4938 8.87801 13.0843 8.39339 13.4997 7.77161C13.9152 7.14982 14.137 6.41883 14.137 5.67102C14.1367 4.66841 13.7383 3.70691 13.0292 2.99805C12.3202 2.28919 11.3586 1.89099 10.356 1.89099V1.89001Z" fill="#6F91A8"/>
</g>
<defs>
<clipPath id="clip0_19:658">
<rect width="20.713" height="20.796" fill="white"/>
</clipPath>
</defs>
</svg>
