<svg width="22" height="22" viewBox="0 0 22 22" fill="none" xmlns="http://www.w3.org/2000/svg">
<path fill-rule="evenodd" clip-rule="evenodd" d="M10.091 14.327C10.0922 14.3471 10.098 14.3666 10.108 14.384C10.1446 14.4512 10.1919 14.512 10.248 14.564C10.5066 14.7936 10.8053 14.9736 11.129 15.095C13.3999 15.8891 15.8731 15.8891 18.144 15.095C18.4677 14.9736 18.7664 14.7936 19.025 14.564C19.0809 14.512 19.1278 14.4512 19.164 14.384C19.1758 14.3672 19.1822 14.3471 19.1822 14.3265C19.1822 14.306 19.1758 14.2859 19.164 14.269C19.1279 14.2018 19.0809 14.1409 19.025 14.089C18.7665 13.8594 18.4678 13.6794 18.144 13.558C17.0233 13.1386 15.8334 12.9349 14.637 12.958C14.0732 12.957 13.51 12.9971 12.952 13.078C12.2904 13.165 11.6434 13.3399 11.028 13.598C10.6834 13.723 10.377 13.9352 10.139 14.214C10.1121 14.246 10.0954 14.2854 10.091 14.327ZM8.27301 14.752V16.566C7.97901 16.588 7.67301 16.6 7.36401 16.6C6.16762 16.6232 4.97764 16.4196 3.85699 16C3.53324 15.8786 3.23461 15.6986 2.97601 15.469C2.91982 15.4171 2.87251 15.3563 2.836 15.289C2.82597 15.2716 2.82012 15.2521 2.81897 15.232V13.889C2.92997 13.943 3.04302 13.989 3.15802 14.042C4.50036 14.5528 5.92798 14.8024 7.36401 14.777C7.67201 14.781 7.97501 14.771 8.27301 14.752ZM19.182 16.62V17.963C19.1807 17.9832 19.1746 18.0028 19.164 18.02C19.1279 18.0873 19.081 18.1481 19.025 18.2C18.7664 18.4296 18.4678 18.6096 18.144 18.731C15.8731 19.5251 13.3999 19.5251 11.129 18.731C10.8053 18.6096 10.5066 18.4296 10.248 18.2C10.1918 18.1481 10.1445 18.0873 10.108 18.02C10.098 18.0026 10.0922 17.9831 10.091 17.963V16.62C10.202 16.674 10.315 16.72 10.43 16.773C13.1486 17.7534 16.1244 17.7534 18.843 16.773C18.958 16.725 19.071 16.674 19.182 16.62ZM13.727 11.174V4.32703C13.7192 4.03774 13.6532 3.753 13.533 3.48978C13.4127 3.22656 13.2406 2.99026 13.027 2.79502C12.6035 2.40074 12.1091 2.09025 11.57 1.88001C8.85136 0.899616 5.87563 0.899616 3.15698 1.88001C2.61789 2.09025 2.12353 2.40074 1.70001 2.79502C1.4864 2.99026 1.3143 3.22656 1.19403 3.48978C1.07376 3.753 1.00778 4.03774 1 4.32703V15.236C1.00776 15.5255 1.07376 15.8104 1.19403 16.0737C1.3143 16.3371 1.48637 16.5736 1.70001 16.769C2.12359 17.163 2.61794 17.4731 3.15698 17.683C4.49932 18.1939 5.92694 18.4434 7.36298 18.418C7.68831 18.418 8.00697 18.407 8.31897 18.385C8.42632 18.81 8.6529 19.1955 8.97198 19.496C9.39556 19.89 9.88998 20.2001 10.429 20.41C13.1477 21.3904 16.1233 21.3904 18.842 20.41C19.381 20.2002 19.8755 19.89 20.299 19.496C20.5126 19.3006 20.6847 19.0641 20.805 18.8007C20.9253 18.5373 20.9913 18.2525 20.999 17.963V14.327C20.9912 14.0377 20.9252 13.753 20.8049 13.4897C20.6847 13.2265 20.5126 12.9903 20.299 12.795C19.8755 12.4008 19.3811 12.0903 18.842 11.88C17.4996 11.3692 16.072 11.1198 14.636 11.145C14.328 11.145 14.025 11.155 13.727 11.174ZM11.909 10.257C11.798 10.311 11.685 10.357 11.57 10.41C8.85136 11.3904 5.87563 11.3904 3.15698 10.41C3.04198 10.362 2.92899 10.31 2.81799 10.257V11.6C2.81914 11.6201 2.82499 11.6396 2.83502 11.657C2.87154 11.7243 2.91878 11.7851 2.97498 11.837C3.23358 12.0666 3.53226 12.2466 3.85602 12.368C4.97667 12.7876 6.16659 12.9911 7.36298 12.968C7.87827 12.9683 8.39305 12.9349 8.90399 12.868C9.30155 12.4736 9.77193 12.1601 10.289 11.945C10.8104 11.7194 11.3531 11.5465 11.909 11.429V10.257ZM11.909 6.62104C11.798 6.67504 11.685 6.72102 11.57 6.77402C8.85136 7.75441 5.87563 7.75441 3.15698 6.77402C3.04198 6.72602 2.92899 6.67404 2.81799 6.62104V7.96402C2.81914 7.98409 2.82499 8.00361 2.83502 8.02103C2.87154 8.08828 2.91878 8.14911 2.97498 8.20105C3.23356 8.43063 3.53225 8.61057 3.85602 8.732C6.12661 9.52595 8.5994 9.52595 10.87 8.732C11.1938 8.61059 11.4924 8.43064 11.751 8.20105C11.8069 8.14914 11.8539 8.0883 11.89 8.02103C11.9006 8.00378 11.9068 7.98421 11.908 7.96402L11.909 6.62104ZM2.83502 4.27002C2.82319 4.28686 2.81683 4.30694 2.81683 4.32752C2.81683 4.3481 2.82319 4.36818 2.83502 4.38501C2.87154 4.45226 2.91878 4.51309 2.97498 4.56504C3.23356 4.79461 3.53225 4.97458 3.85602 5.09601C6.12663 5.88989 8.59939 5.88989 10.87 5.09601C11.1938 4.9746 11.4924 4.79463 11.751 4.56504C11.8069 4.5131 11.8539 4.45226 11.89 4.38501C11.9018 4.36818 11.9082 4.3481 11.9082 4.32752C11.9082 4.30694 11.9018 4.28686 11.89 4.27002C11.8539 4.20278 11.8069 4.14197 11.751 4.09003C11.4924 3.86046 11.1938 3.68045 10.87 3.55902C8.59939 2.76515 6.12663 2.76515 3.85602 3.55902C3.53226 3.68047 3.23358 3.86048 2.97498 4.09003C2.91878 4.14198 2.87154 4.20277 2.83502 4.27002Z" fill="#6F91A8"/>
</svg>
