<svg width="21" height="19" viewBox="0 0 21 19" fill="none" xmlns="http://www.w3.org/2000/svg">
<g clip-path="url(#clip0_19:662)">
<path fill-rule="evenodd" clip-rule="evenodd" d="M11.282 11.236H9.54602V12.972H11.282V11.236ZM7.81097 11.236C7.81097 10.7756 7.9939 10.334 8.31946 10.0085C8.64502 9.6829 9.08658 9.49998 9.547 9.49998H11.283C11.7434 9.49998 12.185 9.6829 12.5106 10.0085C12.8361 10.334 13.019 10.7756 13.019 11.236H19.094V6.89701C19.094 6.6668 19.0026 6.44602 18.8398 6.28324C18.677 6.12046 18.4562 6.029 18.226 6.029H2.59998C2.36977 6.029 2.14899 6.12046 1.98621 6.28324C1.82342 6.44602 1.73199 6.6668 1.73199 6.89701V11.236H7.81097ZM18.225 12.972H13.018C13.0181 13.2 12.9733 13.4258 12.8861 13.6365C12.7989 13.8472 12.6711 14.0386 12.5098 14.1998C12.3486 14.361 12.1572 14.489 11.9465 14.5761C11.7358 14.6633 11.51 14.7081 11.282 14.708H9.54602C9.31801 14.7081 9.09221 14.6633 8.88153 14.5761C8.67085 14.489 8.47941 14.361 8.31818 14.1998C8.15695 14.0386 8.02909 13.8472 7.94189 13.6365C7.8547 13.4258 7.80987 13.2 7.81 12.972H2.59998V15.572C2.59998 15.8022 2.69147 16.023 2.85425 16.1858C3.01703 16.3486 3.23781 16.44 3.46802 16.44H17.353C17.5832 16.44 17.804 16.3486 17.9668 16.1858C18.1296 16.023 18.221 15.8022 18.221 15.572L18.225 12.972ZM14.754 4.29398V3.42201C14.754 3.08057 14.6868 2.74246 14.5561 2.42701C14.4254 2.11156 14.2339 1.82497 13.9925 1.58354C13.7511 1.3421 13.4644 1.15057 13.149 1.01991C12.8335 0.889244 12.4954 0.822 12.154 0.822H8.68298C8.34155 0.822 8.0035 0.889244 7.68805 1.01991C7.3726 1.15057 7.08598 1.3421 6.84454 1.58354C6.60311 1.82497 6.41155 2.11156 6.28088 2.42701C6.15022 2.74246 6.08301 3.08057 6.08301 3.42201V4.28999H2.59998C1.91041 4.28999 1.24913 4.56393 0.761536 5.05152C0.273941 5.53912 0 6.20043 0 6.88999V11.229C0.000599553 11.5331 0.0811236 11.8318 0.233459 12.0951C0.385795 12.3583 0.604577 12.5769 0.867981 12.729V15.564C0.867981 16.2536 1.14192 16.9149 1.62952 17.4025C2.11711 17.8901 2.77845 18.164 3.46802 18.164H17.353C18.0426 18.164 18.7039 17.8901 19.1915 17.4025C19.6791 16.9149 19.953 16.2536 19.953 15.564V12.729C20.2164 12.5769 20.4352 12.3583 20.5876 12.0951C20.7399 11.8318 20.8204 11.5331 20.821 11.229V6.88999C20.821 6.54856 20.7538 6.21047 20.6231 5.89503C20.4924 5.57958 20.3009 5.29295 20.0594 5.05152C19.818 4.81009 19.5315 4.61859 19.216 4.48792C18.9006 4.35726 18.5624 4.28999 18.221 4.28999L14.754 4.29398ZM8.67902 2.55799C8.44881 2.55799 8.22803 2.64945 8.06525 2.81223C7.90246 2.97502 7.81097 3.1958 7.81097 3.426V4.29398H13.018V3.42201C13.018 3.1918 12.9266 2.97102 12.7638 2.80824C12.601 2.64545 12.3802 2.55399 12.15 2.55399L8.67902 2.55799Z" fill="#6F91A8"/>
</g>
<defs>
<clipPath id="clip0_19:662">
<rect width="20.828" height="17.356" fill="white" transform="translate(0 0.822)"/>
</clipPath>
</defs>
</svg>
