<svg width="20" height="20" viewBox="0 0 20 20" fill="none" xmlns="http://www.w3.org/2000/svg">
<path fill-rule="evenodd" clip-rule="evenodd" d="M8.69 8.69104C8.69 8.46057 8.78155 8.23951 8.94452 8.07654C9.10749 7.91357 9.32855 7.82202 9.55902 7.82202H12.166C12.3965 7.82202 12.6175 7.91357 12.7805 8.07654C12.9434 8.23951 13.035 8.46057 13.035 8.69104C13.035 8.92151 12.9434 9.14245 12.7805 9.30542C12.6175 9.46839 12.3965 9.56006 12.166 9.56006H9.56C9.4458 9.56019 9.33266 9.53775 9.22711 9.49414C9.12156 9.45053 9.02569 9.38649 8.94489 9.30579C8.86409 9.22508 8.79996 9.1293 8.75623 9.0238C8.71249 8.91831 8.69 8.80524 8.69 8.69104ZM8.69 5.21497C8.69 4.98449 8.78155 4.76343 8.94452 4.60046C9.10749 4.43749 9.32855 4.34595 9.55902 4.34595H14.773C15.0035 4.34595 15.2245 4.43749 15.3875 4.60046C15.5504 4.76343 15.642 4.98449 15.642 5.21497C15.642 5.44544 15.5504 5.6665 15.3875 5.82947C15.2245 5.99244 15.0035 6.08398 14.773 6.08398H9.56C9.44571 6.08412 9.33254 6.06174 9.22693 6.01807C9.12132 5.97439 9.02533 5.91028 8.94452 5.82947C8.86371 5.74865 8.79966 5.65273 8.75598 5.54712C8.71231 5.44151 8.68987 5.32828 8.69 5.21399V5.21497ZM6.95203 13.036V2.60706C6.95203 2.37658 7.04357 2.15552 7.20654 1.99255C7.36951 1.82958 7.59051 1.73804 7.82098 1.73804H16.511C16.7415 1.73804 16.9625 1.82958 17.1255 1.99255C17.2885 2.15552 17.38 2.37658 17.38 2.60706V15.6429C17.38 16.1039 17.1969 16.546 16.871 16.8719C16.545 17.1979 16.103 17.381 15.642 17.381C15.1811 17.381 14.739 17.1979 14.413 16.8719C14.0871 16.546 13.904 16.1039 13.904 15.6429C13.904 14.9515 13.6293 14.2885 13.1404 13.7996C12.6515 13.3107 11.9884 13.036 11.297 13.036H6.95203ZM2.60699 14.774C2.37652 14.774 2.15552 14.8656 1.99255 15.0286C1.82958 15.1915 1.73798 15.4125 1.73798 15.6429C1.73798 16.1039 1.92113 16.546 2.24707 16.8719C2.57301 17.1979 3.01507 17.381 3.47601 17.381H12.631C12.3255 16.8528 12.1651 16.2531 12.166 15.6429C12.166 15.4125 12.0745 15.1915 11.9115 15.0286C11.7485 14.8656 11.5275 14.774 11.297 14.774H2.60699ZM5.21399 2.60706C5.21399 1.91564 5.48869 1.25246 5.9776 0.76355C6.46651 0.274642 7.12956 0 7.82098 0H16.511C17.2024 0 17.8655 0.274642 18.3544 0.76355C18.8433 1.25246 19.118 1.91564 19.118 2.60706V15.6429C19.118 16.0994 19.0281 16.5515 18.8534 16.9733C18.6787 17.395 18.4227 17.7782 18.0999 18.101C17.7771 18.4237 17.394 18.6797 16.9722 18.8544C16.5505 19.0291 16.0985 19.119 15.642 19.119H3.47601C3.01954 19.119 2.56754 19.0291 2.14581 18.8544C1.72409 18.6797 1.34084 18.4237 1.01807 18.101C0.69529 17.7782 0.439273 17.395 0.264587 16.9733C0.089902 16.5515 0 16.0994 0 15.6429C0 14.9515 0.274642 14.2885 0.76355 13.7996C1.25246 13.3107 1.91558 13.036 2.60699 13.036H5.21399V2.60706Z" fill="#6F91A8"/>
</svg>
