<svg width="16" height="21" viewBox="0 0 16 21" fill="none" xmlns="http://www.w3.org/2000/svg">
<path fill-rule="evenodd" clip-rule="evenodd" d="M7.821 10.429C7.93512 10.429 8.04812 10.4515 8.15355 10.4952C8.25898 10.5388 8.35478 10.6028 8.43547 10.6835C8.51617 10.7642 8.58018 10.86 8.62386 10.9655C8.66753 11.0709 8.69 11.1839 8.69 11.298V12.167H9.55901C9.78948 12.167 10.0105 12.2585 10.1735 12.4215C10.3364 12.5845 10.428 12.8055 10.428 13.036C10.428 13.2665 10.3364 13.4875 10.1735 13.6505C10.0105 13.8134 9.78948 13.905 9.55901 13.905H8.69V14.774C8.69 15.0045 8.59844 15.2255 8.43547 15.3885C8.2725 15.5515 8.05147 15.643 7.821 15.643C7.59053 15.643 7.3695 15.5515 7.20653 15.3885C7.04356 15.2255 6.952 15.0045 6.952 14.774V13.9H6.08299C5.85252 13.9 5.63149 13.8084 5.46852 13.6454C5.30555 13.4825 5.21401 13.2615 5.21401 13.031C5.21401 12.8005 5.30555 12.5795 5.46852 12.4165C5.63149 12.2535 5.85252 12.162 6.08299 12.162H6.952V11.3C6.95173 11.1857 6.97403 11.0725 7.01758 10.9669C7.06113 10.8612 7.12509 10.7651 7.20581 10.6842C7.28653 10.6033 7.38243 10.5392 7.48799 10.4954C7.59355 10.4516 7.70671 10.429 7.821 10.429ZM7.67187e-07 2.60699C7.67187e-07 1.91558 0.274659 1.25246 0.763566 0.76355C1.25247 0.274643 1.91558 4.99242e-08 2.607 4.99243e-08H8.69C8.8041 -3.86841e-05 8.91708 0.0224619 9.02245 0.0662232C9.12782 0.109984 9.2235 0.174149 9.304 0.255005L15.387 6.33801C15.4678 6.41855 15.5319 6.5142 15.5757 6.61957C15.6195 6.72493 15.642 6.83794 15.642 6.95203V18.252C15.642 18.9434 15.3673 19.6065 14.8784 20.0954C14.3895 20.5843 13.7264 20.859 13.035 20.859H2.607C2.26447 20.859 1.92531 20.7915 1.60889 20.6603C1.29246 20.5292 1.00497 20.337 0.762864 20.0947C0.520755 19.8524 0.328773 19.5648 0.197877 19.2483C0.0669804 18.9318 -0.000262006 18.5925 7.67187e-07 18.25V2.60699ZM9.56 2.96698L12.676 6.08301H10.429C10.1985 6.08301 9.9775 5.99146 9.81453 5.82849C9.65156 5.66552 9.56 5.44446 9.56 5.21399V2.96698ZM2.608 1.73798C2.49388 1.73798 2.38088 1.76047 2.27545 1.80414C2.17002 1.84781 2.07423 1.91186 1.99353 1.99255C1.91284 2.07325 1.84882 2.16904 1.80515 2.27448C1.76147 2.37991 1.739 2.49288 1.739 2.60699V18.25C1.739 18.4805 1.83056 18.7015 1.99353 18.8645C2.1565 19.0275 2.37753 19.119 2.608 19.119H13.037C13.2675 19.119 13.4885 19.0275 13.6515 18.8645C13.8144 18.7015 13.906 18.4805 13.906 18.25V7.82098H10.43C9.73857 7.82098 9.07549 7.54634 8.58658 7.05743C8.09767 6.56853 7.823 5.90541 7.823 5.21399V1.73798H2.608Z" fill="#6F91A8"/>
</svg>
