<svg width="21" height="21" viewBox="0 0 21 21" fill="none" xmlns="http://www.w3.org/2000/svg">
<path fill-rule="evenodd" clip-rule="evenodd" d="M17.512 5.70502L10.56 12.657V14.035H11.938L18.89 7.08301L17.512 5.70502ZM4.476 6.21399C4.70647 6.21399 4.9275 6.12244 5.09047 5.95947C5.25344 5.7965 5.345 5.57544 5.345 5.34497C5.345 5.1145 5.25344 4.8935 5.09047 4.73053C4.9275 4.56756 4.70647 4.47601 4.476 4.47601V3.60699C4.476 3.49288 4.49847 3.37991 4.54214 3.27448C4.58582 3.16904 4.64984 3.07325 4.73053 2.99255C4.81122 2.91186 4.90702 2.84781 5.01245 2.80414C5.11788 2.76047 5.23088 2.73798 5.345 2.73798H14.905C15.0191 2.73798 15.1321 2.76047 15.2375 2.80414C15.343 2.84781 15.4388 2.91186 15.5195 2.99255C15.6002 3.07325 15.6642 3.16904 15.7079 3.27448C15.7515 3.37991 15.774 3.49288 15.774 3.60699V4.98499L9.33099 11.428C9.00515 11.754 8.82209 12.196 8.82201 12.657V15.773H11.938C12.3989 15.7729 12.841 15.5898 13.167 15.264L15.774 12.657V17.511C15.774 17.7415 15.6824 17.9625 15.5195 18.1255C15.3565 18.2885 15.1355 18.38 14.905 18.38H5.345C5.11453 18.38 4.8935 18.2885 4.73053 18.1255C4.56756 17.9625 4.476 17.7415 4.476 17.511V16.642C4.70647 16.642 4.9275 16.5504 5.09047 16.3875C5.25344 16.2245 5.345 16.0035 5.345 15.773C5.345 15.5425 5.25344 15.3215 5.09047 15.1585C4.9275 14.9955 4.70647 14.904 4.476 14.904V11.428C4.70647 11.428 4.9275 11.3364 5.09047 11.1735C5.25344 11.0105 5.345 10.7895 5.345 10.559C5.345 10.3285 5.25344 10.1075 5.09047 9.94452C4.9275 9.78155 4.70647 9.69 4.476 9.69V6.21399ZM2.73801 3.60699C2.73801 2.91558 3.01266 2.25246 3.50157 1.76355C3.99048 1.27464 4.65358 1 5.345 1H14.905C15.5964 1 16.2595 1.27464 16.7484 1.76355C17.2373 2.25246 17.512 2.91558 17.512 3.60699V3.96698C17.7403 3.96653 17.9665 4.01127 18.1774 4.09863C18.3883 4.18599 18.5799 4.31427 18.741 4.47601L20.119 5.854C20.2804 6.01539 20.4084 6.20697 20.4958 6.41785C20.5831 6.62872 20.6281 6.85476 20.6281 7.08301C20.6281 7.31126 20.5831 7.53724 20.4958 7.74811C20.4084 7.95898 20.2804 8.15062 20.119 8.31201L17.512 10.919V17.512C17.512 18.2034 17.2373 18.8665 16.7484 19.3554C16.2595 19.8443 15.5964 20.119 14.905 20.119H5.345C4.65358 20.119 3.99048 19.8443 3.50157 19.3554C3.01266 18.8665 2.73801 18.2034 2.73801 17.512V16.643H1.869C1.63853 16.643 1.41749 16.5515 1.25452 16.3885C1.09155 16.2255 1 16.0045 1 15.774C1 15.5435 1.09155 15.3225 1.25452 15.1595C1.41749 14.9966 1.63853 14.905 1.869 14.905H2.73801V11.429H1.869C1.63853 11.429 1.41749 11.3375 1.25452 11.1745C1.09155 11.0115 1 10.7905 1 10.56C1 10.3295 1.09155 10.1085 1.25452 9.9455C1.41749 9.78253 1.63853 9.69098 1.869 9.69098H2.73801V6.21503H1.869C1.63853 6.21503 1.41749 6.12342 1.25452 5.96045C1.09155 5.79748 1 5.57648 1 5.34601C1 5.11554 1.09155 4.89448 1.25452 4.73151C1.41749 4.56854 1.63853 4.47699 1.869 4.47699H2.73801V3.60699Z" fill="#6F91A8"/>
</svg>
