<svg width="20" height="20" viewBox="0 0 20 20" fill="none" xmlns="http://www.w3.org/2000/svg">
<path fill-rule="evenodd" clip-rule="evenodd" d="M4.345 10.667C4.345 10.4365 4.43656 10.2155 4.59953 10.0525C4.76249 9.88952 4.98352 9.79797 5.214 9.79797H9.55901C9.78948 9.79797 10.0105 9.88952 10.1735 10.0525C10.3364 10.2155 10.428 10.4365 10.428 10.667C10.428 10.8975 10.3364 11.1185 10.1735 11.2814C10.0105 11.4444 9.78948 11.5359 9.55901 11.5359H5.214C4.98352 11.5359 4.76249 11.4444 4.59953 11.2814C4.43656 11.1185 4.345 10.8975 4.345 10.667ZM4.345 3.71497H2.607C2.49288 3.71497 2.37988 3.73746 2.27444 3.78113C2.16901 3.8248 2.07322 3.88879 1.99252 3.96948C1.91183 4.05018 1.84782 4.14597 1.80415 4.2514C1.76047 4.35684 1.738 4.46987 1.738 4.58398V16.751C1.738 16.9814 1.82955 17.2025 1.99252 17.3655C2.15549 17.5284 2.37653 17.62 2.607 17.62H16.507C16.7375 17.62 16.9585 17.5284 17.1215 17.3655C17.2844 17.2025 17.376 16.9814 17.376 16.751V4.58295C17.376 4.35247 17.2844 4.13147 17.1215 3.96851C16.9585 3.80554 16.7375 3.71399 16.507 3.71399H14.769C14.769 3.94446 14.6775 4.16546 14.5145 4.32843C14.3515 4.4914 14.1305 4.58295 13.9 4.58295C13.6695 4.58295 13.4485 4.4914 13.2855 4.32843C13.1226 4.16546 13.031 3.94446 13.031 3.71399H10.424C10.424 3.94446 10.3324 4.16546 10.1695 4.32843C10.0065 4.4914 9.78547 4.58295 9.55499 4.58295C9.32452 4.58295 9.10349 4.4914 8.94052 4.32843C8.77755 4.16546 8.686 3.94446 8.686 3.71399H6.079C6.079 3.94446 5.98745 4.16546 5.82448 4.32843C5.66151 4.4914 5.44047 4.58295 5.21 4.58295C4.97953 4.58295 4.7585 4.4914 4.59553 4.32843C4.43256 4.16546 4.341 3.94446 4.341 3.71399L4.345 3.71497ZM5.214 0.238953C5.32812 0.238953 5.44112 0.261443 5.54655 0.305115C5.65199 0.348786 5.74778 0.412836 5.82848 0.49353C5.90917 0.574224 5.97318 0.67002 6.01685 0.775452C6.06052 0.880884 6.083 0.993852 6.083 1.10797V1.97699H8.69V1.10797C8.69 0.877498 8.78155 0.656499 8.94452 0.49353C9.10749 0.330561 9.32853 0.238953 9.55901 0.238953C9.78948 0.238953 10.0105 0.330561 10.1735 0.49353C10.3364 0.656499 10.428 0.877498 10.428 1.10797V1.97699H13.035V1.10797C13.035 0.877498 13.1266 0.656499 13.2895 0.49353C13.4525 0.330561 13.6735 0.238953 13.904 0.238953C14.1345 0.238953 14.3555 0.330561 14.5185 0.49353C14.6814 0.656499 14.773 0.877498 14.773 1.10797V1.97699H16.511C17.2024 1.97699 17.8655 2.25163 18.3544 2.74054C18.8433 3.22945 19.118 3.89257 19.118 4.58398V16.751C19.118 17.4424 18.8433 18.1055 18.3544 18.5944C17.8655 19.0833 17.2024 19.358 16.511 19.358H2.611C2.26822 19.3585 1.92871 19.2914 1.61189 19.1606C1.29506 19.0297 1.00715 18.8377 0.764633 18.5955C0.522114 18.3532 0.329745 18.0655 0.19854 17.7488C0.0673347 17.4322 -0.000131694 17.0928 1.92991e-07 16.75V4.58295C1.92991e-07 3.89153 0.274666 3.22847 0.763573 2.73956C1.25248 2.25066 1.91558 1.97595 2.607 1.97595H4.345V1.10699C4.345 0.876521 4.43656 0.655462 4.59953 0.492493C4.76249 0.329524 4.98352 0.237976 5.214 0.237976V0.238953Z" fill="#6F91A8"/>
<path d="M5.21397 13.274C4.9835 13.274 4.76246 13.3655 4.59949 13.5285C4.43653 13.6915 4.34497 13.9125 4.34497 14.143C4.34497 14.3735 4.43653 14.5945 4.59949 14.7574C4.76246 14.9204 4.9835 15.0119 5.21397 15.0119H13.904C14.1344 15.0119 14.3555 14.9204 14.5184 14.7574C14.6814 14.5945 14.773 14.3735 14.773 14.143C14.773 13.9125 14.6814 13.6915 14.5184 13.5285C14.3555 13.3655 14.1344 13.274 13.904 13.274H5.21397Z" fill="#6F91A8"/>
</svg>
