<svg width="28" height="33" viewBox="0 0 28 33" fill="none" xmlns="http://www.w3.org/2000/svg">
<path fill-rule="evenodd" clip-rule="evenodd" d="M4.59824 23.6712C4.75988 23.7741 4.94747 23.8288 5.13906 23.829H18.7091C18.9006 23.8288 19.0882 23.7741 19.2499 23.6712C19.4115 23.5683 19.5405 23.4216 19.6218 23.2481C19.7031 23.0746 19.7333 22.8816 19.7089 22.6915C19.6845 22.5015 19.6065 22.3223 19.4841 22.175L19.0681 21.675C17.7098 20.0429 16.9667 17.9863 16.9681 15.863V14.749C16.9681 13.4112 16.4366 12.1283 15.4907 11.1823C14.5448 10.2364 13.2618 9.70499 11.9241 9.70499C10.5863 9.70499 9.30335 10.2364 8.35741 11.1823C7.41148 12.1283 6.88006 13.4112 6.88006 14.749V15.863C6.88138 17.9863 6.13829 20.0429 4.78006 21.675L4.36406 22.175C4.24158 22.3223 4.16358 22.5015 4.13919 22.6915C4.1148 22.8816 4.14501 23.0746 4.2263 23.2481C4.30759 23.4216 4.43661 23.5683 4.59824 23.6712ZM10.0515 26.6329C9.95284 26.3829 9.90508 26.1157 9.91106 25.847H13.9461C13.952 26.1157 13.9043 26.3829 13.8056 26.6329C13.7069 26.8829 13.5592 27.1107 13.3713 27.3029C13.1834 27.4951 12.9589 27.6477 12.7112 27.752C12.4634 27.8562 12.1973 27.9099 11.9285 27.9099C11.6598 27.9099 11.3937 27.8562 11.1459 27.752C10.8982 27.6477 10.6738 27.4951 10.4858 27.3029C10.2979 27.1107 10.1502 26.8829 10.0515 26.6329ZM12.6385 5.96552C12.4493 5.77629 12.1927 5.66998 11.9251 5.66998C11.6581 5.67104 11.4025 5.77781 11.2142 5.96692C11.0258 6.15603 10.92 6.41207 10.9201 6.67899V7.75897C9.23943 8.00201 7.7026 8.84231 6.59098 10.126C5.47936 11.4097 4.86736 13.0509 4.86706 14.749V15.863C4.86721 17.5149 4.28831 19.1147 3.23106 20.384L2.81406 20.884C2.44602 21.3259 2.21151 21.8636 2.13799 22.4341C2.06447 23.0045 2.15499 23.584 2.39894 24.1049C2.64289 24.6257 3.03018 25.0663 3.51546 25.375C4.00073 25.6837 4.56392 25.8478 5.13906 25.848H7.89005C7.89005 26.9183 8.31523 27.9447 9.07203 28.7015C9.82883 29.4583 10.8553 29.8835 11.9256 29.8835C12.9958 29.8835 14.0223 29.4583 14.7791 28.7015C15.5359 27.9447 15.9611 26.9183 15.9611 25.848H18.7151C19.2902 25.8478 19.8534 25.6837 20.3387 25.375C20.8239 25.0663 21.2112 24.6257 21.4552 24.1049C21.6991 23.584 21.7896 23.0045 21.7161 22.4341C21.6426 21.8636 21.4081 21.3259 21.0401 20.884L20.6231 20.384C19.5659 19.1146 18.987 17.5149 18.9871 15.863V14.749C18.9867 13.0509 18.3747 11.4097 17.2631 10.126C16.1515 8.84231 14.6147 8.00201 12.9341 7.75897V6.67899C12.9341 6.41138 12.8278 6.15474 12.6385 5.96552Z" fill="#6F91A8"/>
<path d="M19.1749 14.168C22.9465 14.168 26.0039 11.1106 26.0039 7.33901C26.0039 3.56746 22.9465 0.51001 19.1749 0.51001C15.4034 0.51001 12.3459 3.56746 12.3459 7.33901C12.3459 11.1106 15.4034 14.168 19.1749 14.168Z" fill="#DA5042"/>
<path d="M19.225 10.9285C20.6951 10.9285 21.7466 10.1199 21.7434 9.00131C21.7466 8.18632 21.2289 7.60464 20.2669 7.4832V7.43206C20.9987 7.30102 21.5037 6.78327 21.5005 6.04818C21.5037 5.01587 20.5992 4.20408 19.2441 4.20408C17.9018 4.20408 16.8919 4.9903 16.8727 6.12169H18.199C18.215 5.62311 18.672 5.30031 19.2377 5.30031C19.797 5.30031 20.171 5.63909 20.1678 6.13128C20.171 6.64584 19.7331 6.9942 19.1035 6.9942H18.4931V8.01054H19.1035C19.845 8.01054 20.3084 8.38128 20.3052 8.90862C20.3084 9.42957 19.861 9.78753 19.2281 9.78753C18.6177 9.78753 18.1607 9.46793 18.1351 8.98852H16.7416C16.764 10.1327 17.7867 10.9285 19.225 10.9285Z" fill="white"/>
</svg>
