<svg width="20" height="21" viewBox="0 0 20 21" fill="none" xmlns="http://www.w3.org/2000/svg">
<path fill-rule="evenodd" clip-rule="evenodd" d="M5.27594 10.429C5.27594 9.56963 5.53077 8.72958 6.00821 8.01505C6.48564 7.30051 7.16425 6.7436 7.95819 6.41473C8.75214 6.08587 9.62576 5.99983 10.4686 6.16748C11.3115 6.33513 12.0857 6.74897 12.6933 7.35663C13.301 7.96429 13.7148 8.73848 13.8825 9.58133C14.0501 10.4242 13.9641 11.2978 13.6352 12.0918C13.3063 12.8857 12.7494 13.5643 12.0349 14.0417C11.3204 14.5192 10.4803 14.774 9.62094 14.774C8.46858 14.774 7.36341 14.3162 6.54857 13.5014C5.73372 12.6865 5.27594 11.5814 5.27594 10.429ZM9.62094 7.82199C9.10533 7.82199 8.6013 7.97489 8.17258 8.26135C7.74386 8.54781 7.4097 8.95497 7.21239 9.43134C7.01507 9.9077 6.96345 10.4319 7.06404 10.9376C7.16463 11.4433 7.41292 11.9078 7.77751 12.2724C8.14211 12.637 8.60663 12.8853 9.11234 12.9859C9.61804 13.0865 10.1422 13.0349 10.6186 12.8376C11.095 12.6402 11.5021 12.3061 11.7886 11.8774C12.0751 11.4487 12.2279 10.9446 12.2279 10.429C12.2282 9.73826 11.9543 9.07568 11.4665 8.5867C10.9786 8.09772 10.3167 7.82234 9.62595 7.82101L9.62094 7.82199ZM8.84694 0.0289917C9.10227 0.00965837 9.36027 0 9.62094 0C9.88161 0 10.1396 0.00965837 10.3949 0.0289917C10.9455 0.0803015 11.462 0.318335 11.8587 0.703583C12.2555 1.08883 12.5085 1.59814 12.5759 2.147L12.6589 2.71399C12.6979 2.89233 12.7777 3.05922 12.892 3.20151C13.0064 3.34379 13.1522 3.4576 13.3179 3.534C13.4619 3.611 13.6039 3.694 13.7419 3.78C13.8909 3.88537 14.0623 3.95468 14.2426 3.98245C14.4229 4.01022 14.6072 3.99568 14.7809 3.94L15.3149 3.72699C15.8234 3.51158 16.3902 3.47604 16.9216 3.62622C17.4531 3.7764 17.9174 4.10332 18.2379 4.55301C18.5312 4.98137 18.7916 5.4313 19.0169 5.89899C19.2475 6.40126 19.2994 6.96727 19.1641 7.50311C19.0288 8.03895 18.7143 8.51243 18.2729 8.845L17.8189 9.203C17.6838 9.32544 17.5791 9.47763 17.5129 9.64755C17.4468 9.81747 17.4211 10.0005 17.4379 10.182C17.4379 10.264 17.4379 10.345 17.4379 10.428C17.4379 10.511 17.4379 10.592 17.4379 10.674C17.4211 10.8556 17.4468 11.0385 17.5129 11.2085C17.5791 11.3784 17.6838 11.5306 17.8189 11.653L18.2729 12.011C18.7143 12.3436 19.0288 12.817 19.1641 13.3529C19.2994 13.8887 19.2475 14.4547 19.0169 14.957C18.7916 15.4247 18.5312 15.8746 18.2379 16.303C17.9176 16.753 17.4533 17.0801 16.9218 17.2303C16.3903 17.3805 15.8234 17.3448 15.3149 17.129L14.7809 16.916C14.6072 16.8603 14.4228 16.8459 14.2424 16.8738C14.0621 16.9018 13.8907 16.9713 13.7419 17.077C13.6039 17.163 13.4626 17.2447 13.3179 17.322C13.1522 17.3984 13.0064 17.5122 12.892 17.6545C12.7777 17.7968 12.6979 17.9637 12.6589 18.142L12.5759 18.709C12.5087 19.2579 12.2557 19.7673 11.8589 20.1526C11.4622 20.5379 10.9456 20.7759 10.3949 20.827C10.1396 20.8463 9.88161 20.856 9.62094 20.856C9.36027 20.856 9.10227 20.8463 8.84694 20.827C8.29628 20.7759 7.77968 20.5379 7.38293 20.1526C6.98619 19.7673 6.73318 19.2579 6.66594 18.709L6.58295 18.142C6.54401 17.9637 6.46423 17.7968 6.34988 17.6545C6.23553 17.5122 6.08974 17.3984 5.92395 17.322C5.77995 17.2447 5.63861 17.163 5.49994 17.077C5.35115 16.9713 5.1798 16.9018 4.99945 16.8738C4.81911 16.8459 4.63473 16.8603 4.46094 16.916L3.92694 17.129C3.4185 17.3448 2.85162 17.3805 2.3201 17.2303C1.78857 17.0801 1.32424 16.753 1.00394 16.303C0.710673 15.8746 0.45027 15.4247 0.224945 14.957C-0.00561285 14.4547 -0.0575344 13.8887 0.0777894 13.3529C0.213113 12.817 0.527553 12.3436 0.968948 12.011L1.42294 11.653C1.55805 11.5306 1.66282 11.3784 1.72894 11.2085C1.79507 11.0385 1.82075 10.8556 1.80394 10.674C1.80394 10.592 1.80394 10.511 1.80394 10.428C1.80394 10.345 1.80394 10.264 1.80394 10.182C1.82075 10.0005 1.79507 9.81747 1.72894 9.64755C1.66282 9.47763 1.55805 9.32544 1.42294 9.203L0.968948 8.845C0.527553 8.51243 0.213113 8.03895 0.0777894 7.50311C-0.0575344 6.96727 -0.00561285 6.40126 0.224945 5.89899C0.450263 5.4313 0.710666 4.98137 1.00394 4.55301C1.32449 4.10332 1.78882 3.7764 2.32025 3.62622C2.85169 3.47604 3.41844 3.51158 3.92694 3.72699L4.46094 3.94C4.63467 3.99568 4.81898 4.01022 4.9993 3.98245C5.17961 3.95468 5.351 3.88537 5.49994 3.78C5.63794 3.694 5.77995 3.611 5.92395 3.534C6.08974 3.4576 6.23553 3.34379 6.34988 3.20151C6.46423 3.05922 6.54401 2.89233 6.58295 2.71399L6.66594 2.147C6.73352 1.59753 6.98716 1.08775 7.38467 0.702423C7.78219 0.317098 8.29962 0.0794362 8.85094 0.0289917H8.84694ZM9.62094 1.73801C9.40294 1.73801 9.18727 1.74565 8.97394 1.76099C8.81843 1.78401 8.67543 1.85941 8.56853 1.97467C8.46163 2.08994 8.39721 2.23819 8.38594 2.39499L8.30295 2.96201C8.22552 3.40921 8.04446 3.83205 7.77426 4.19672C7.50406 4.56138 7.15224 4.85774 6.74695 5.06201C6.63495 5.12201 6.52494 5.18599 6.41794 5.25299C6.03819 5.50278 5.60515 5.66006 5.15361 5.71216C4.70207 5.76426 4.24461 5.70975 3.81795 5.55301L3.28394 5.34C3.14254 5.27135 2.98196 5.25297 2.82871 5.28787C2.67545 5.32278 2.53867 5.4089 2.44095 5.53201C2.19688 5.88927 1.97994 6.2643 1.79195 6.65399C1.734 6.80013 1.72769 6.96167 1.77406 7.11188C1.82044 7.26209 1.9167 7.39197 2.04694 7.48001L2.50095 7.83701C2.85006 8.12777 3.12609 8.49636 3.30689 8.91318C3.48768 9.33 3.56819 9.78342 3.54195 10.237C3.54195 10.3 3.54195 10.365 3.54195 10.429C3.54195 10.493 3.54195 10.558 3.54195 10.621C3.56819 11.0746 3.48768 11.528 3.30689 11.9448C3.12609 12.3616 2.85006 12.7302 2.50095 13.021L2.04694 13.379C1.91678 13.4669 1.82055 13.5965 1.77417 13.7466C1.72779 13.8966 1.73407 14.058 1.79195 14.204C1.97975 14.5938 2.1967 14.9688 2.44095 15.326C2.53867 15.4491 2.67545 15.5352 2.82871 15.5701C2.98196 15.605 3.14254 15.5867 3.28394 15.518L3.81795 15.305C4.24451 15.1477 4.70208 15.0929 5.15372 15.145C5.60536 15.1971 6.03841 15.3547 6.41794 15.605C6.52594 15.6717 6.63561 15.735 6.74695 15.795C7.15224 15.9993 7.50406 16.2956 7.77426 16.6603C8.04446 17.0249 8.22552 17.4478 8.30295 17.895L8.38594 18.463C8.39703 18.6199 8.46138 18.7682 8.56831 18.8835C8.67525 18.9988 8.81835 19.0741 8.97394 19.097C9.18794 19.1123 9.40361 19.12 9.62094 19.12C9.83827 19.12 10.0539 19.1123 10.2679 19.097C10.4235 19.0741 10.5666 18.9988 10.6736 18.8835C10.7805 18.7682 10.8448 18.6199 10.8559 18.463L10.9389 17.895C11.0164 17.4478 11.1974 17.0249 11.4676 16.6603C11.7378 16.2956 12.0897 15.9993 12.4949 15.795C12.6069 15.735 12.7166 15.6717 12.8239 15.605C13.2036 15.3551 13.6367 15.1977 14.0882 15.1456C14.5398 15.0935 14.9973 15.1481 15.424 15.305L15.9579 15.518C16.0993 15.5867 16.2599 15.605 16.4132 15.5701C16.5664 15.5352 16.7032 15.4491 16.8009 15.326C17.0452 14.9688 17.2621 14.5938 17.4499 14.204C17.5079 14.0579 17.5142 13.8963 17.4678 13.7461C17.4215 13.5959 17.3252 13.466 17.1949 13.378L16.7409 13.021C16.3913 12.7306 16.1149 12.3621 15.9339 11.9452C15.7529 11.5283 15.6724 11.0747 15.6989 10.621C15.6989 10.558 15.6989 10.493 15.6989 10.429C15.6989 10.365 15.6989 10.3 15.6989 10.237C15.6724 9.78329 15.7529 9.3297 15.9339 8.91281C16.1149 8.49592 16.3913 8.12741 16.7409 7.83701L17.1949 7.48001C17.3252 7.39197 17.4215 7.26209 17.4678 7.11188C17.5142 6.96167 17.5079 6.80013 17.4499 6.65399C17.2619 6.2643 17.045 5.88927 16.8009 5.53201C16.7032 5.4089 16.5664 5.32278 16.4132 5.28787C16.2599 5.25297 16.0993 5.27135 15.9579 5.34L15.424 5.55301C14.9973 5.70968 14.5398 5.76414 14.0883 5.71204C13.6368 5.65994 13.2037 5.50271 12.8239 5.25299C12.7159 5.18599 12.6069 5.12201 12.4949 5.06201C12.0897 4.85774 11.7378 4.56138 11.4676 4.19672C11.1974 3.83205 11.0164 3.40921 10.9389 2.96201L10.8559 2.39499C10.8447 2.23819 10.7803 2.08994 10.6734 1.97467C10.5665 1.85941 10.4235 1.78401 10.2679 1.76099C10.0573 1.74565 9.84328 1.73801 9.62595 1.73801H9.62094Z" fill="#6F91A8"/>
</svg>
