<svg width="23" height="22" viewBox="0 0 23 22" fill="none" xmlns="http://www.w3.org/2000/svg">
<path fill-rule="evenodd" clip-rule="evenodd" d="M11.429 6.47603C10.9141 6.47919 10.4116 6.63474 9.98499 6.92312C9.55838 7.21149 9.22673 7.61976 9.03186 8.0964C8.83699 8.57303 8.78768 9.09669 8.89008 9.60134C8.99247 10.106 9.24201 10.569 9.60724 10.932C9.97246 11.295 10.437 11.5417 10.9423 11.641C11.4475 11.7403 11.9709 11.6878 12.4463 11.49C12.9217 11.2922 13.3279 10.9581 13.6137 10.5297C13.8995 10.1014 14.052 9.59796 14.052 9.08303C14.051 8.73962 13.9823 8.39977 13.8499 8.08291C13.7175 7.76604 13.524 7.47837 13.2805 7.23629C13.0369 6.9942 12.748 6.80246 12.4303 6.67202C12.1126 6.54157 11.7724 6.47498 11.429 6.47603ZM1 10.822C0.999275 8.4121 1.83325 6.07631 3.36017 4.21181C4.88709 2.34732 7.01269 1.06921 9.37549 0.594869C11.7383 0.120528 14.1925 0.479235 16.3207 1.60994C18.4489 2.74065 20.1198 4.57358 21.0493 6.79708C21.9787 9.02057 22.1093 11.4974 21.4189 13.8063C20.7285 16.1152 19.2597 18.1137 17.2623 19.4621C15.2648 20.8104 12.862 21.4253 10.4624 21.2021C8.06281 20.979 5.81456 19.9315 4.09998 18.238C3.11839 17.2684 2.33895 16.1136 1.80682 14.8407C1.2747 13.5677 1.00047 12.2018 1 10.822ZM17.15 17.363C16.7062 16.2053 15.9217 15.2095 14.9001 14.507C13.8785 13.8045 12.6678 13.4284 11.428 13.4284C10.1881 13.4284 8.97748 13.8045 7.95587 14.507C6.93426 15.2095 6.14977 16.2053 5.70599 17.363C7.29015 18.7487 9.3233 19.5125 11.428 19.5125C13.5327 19.5125 15.5659 18.7487 17.15 17.363ZM11.428 2.131C9.82136 2.13155 8.24636 2.57746 6.87787 3.41915C5.50937 4.26084 4.40099 5.46538 3.67578 6.89901C2.95058 8.33264 2.63692 9.93925 2.76971 11.5404C2.90251 13.1415 3.47651 14.6744 4.42798 15.969C5.28709 14.2924 6.71916 12.9795 8.46399 12.269C7.82174 11.6728 7.37399 10.897 7.17914 10.0426C6.98429 9.18817 7.05139 8.29486 7.37164 7.47915C7.6919 6.66343 8.25046 5.96311 8.97455 5.4695C9.69864 4.97589 10.5547 4.71187 11.431 4.71187C12.3074 4.71187 13.1634 4.97589 13.8875 5.4695C14.6115 5.96311 15.1701 6.66343 15.4904 7.47915C15.8106 8.29486 15.8777 9.18817 15.6829 10.0426C15.488 10.897 15.0403 11.6728 14.398 12.269C16.1428 12.9795 17.5749 14.2924 18.434 15.969C19.3855 14.6744 19.9595 13.1415 20.0923 11.5404C20.2251 9.93925 19.9114 8.33264 19.1862 6.89901C18.461 5.46538 17.3526 4.26084 15.9841 3.41915C14.6156 2.57746 13.0406 2.13155 11.434 2.131H11.428Z" fill="#6F91A8"/>
</svg>
