<svg width="26" height="22" viewBox="0 0 26 22" fill="none" xmlns="http://www.w3.org/2000/svg">
<path fill-rule="evenodd" clip-rule="evenodd" d="M14.168 13.121H12.168V15.121H14.168V13.121ZM10.168 13.121C10.168 12.5906 10.3787 12.0819 10.7538 11.7068C11.1289 11.3317 11.6375 11.121 12.168 11.121H14.168C14.6984 11.121 15.2071 11.3317 15.5822 11.7068C15.9572 12.0819 16.168 12.5906 16.168 13.121H23.168V8.121C23.168 7.85579 23.0626 7.60145 22.8751 7.41391C22.6875 7.22637 22.4332 7.121 22.168 7.121H4.16797C3.90275 7.121 3.64841 7.22637 3.46088 7.41391C3.27334 7.60145 3.16797 7.85579 3.16797 8.121V13.121H10.168ZM22.168 15.121H16.168C16.168 15.6514 15.9572 16.1601 15.5822 16.5352C15.2071 16.9103 14.6984 17.121 14.168 17.121H12.168C11.6375 17.121 11.1289 16.9103 10.7538 16.5352C10.3787 16.1601 10.168 15.6514 10.168 15.121H4.16797V18.121C4.16797 18.3862 4.27334 18.6406 4.46088 18.8281C4.64841 19.0156 4.90275 19.121 5.16797 19.121H21.168C21.4332 19.121 21.6875 19.0156 21.8751 18.8281C22.0626 18.6406 22.168 18.3862 22.168 18.121V15.121ZM18.168 5.121V4.121C18.168 3.32535 17.8519 2.5623 17.2893 1.99969C16.7267 1.43709 15.9636 1.121 15.168 1.121H11.168C10.3723 1.121 9.60924 1.43709 9.04663 1.99969C8.48402 2.5623 8.16797 3.32535 8.16797 4.121V5.121H4.16797C3.37232 5.121 2.60924 5.43709 2.04663 5.99969C1.48402 6.5623 1.16797 7.32535 1.16797 8.121V13.121C1.1678 13.4722 1.26012 13.8173 1.43567 14.1216C1.61121 14.4258 1.86379 14.6784 2.16797 14.854V18.121C2.16797 18.9167 2.48402 19.6797 3.04663 20.2423C3.60924 20.8049 4.37232 21.121 5.16797 21.121H21.168C21.9636 21.121 22.7267 20.8049 23.2893 20.2423C23.8519 19.6797 24.168 18.9167 24.168 18.121V14.854C24.4721 14.6784 24.7247 14.4258 24.9003 14.1216C25.0758 13.8173 25.1681 13.4722 25.168 13.121V8.121C25.168 7.32535 24.8519 6.5623 24.2893 5.99969C23.7267 5.43709 22.9636 5.121 22.168 5.121H18.168ZM11.168 3.121C10.9028 3.121 10.6484 3.22637 10.4609 3.41391C10.2733 3.60145 10.168 3.85579 10.168 4.121V5.121H16.168V4.121C16.168 3.85579 16.0626 3.60145 15.8751 3.41391C15.6875 3.22637 15.4332 3.121 15.168 3.121H11.168Z" fill="#6F91A8"/>
</svg>
