<svg width="22" height="23" viewBox="0 0 22 23" fill="none" xmlns="http://www.w3.org/2000/svg">
<path fill-rule="evenodd" clip-rule="evenodd" d="M11.429 7.47603C10.9141 7.47919 10.4116 7.63474 9.98499 7.92312C9.55838 8.21149 9.22673 8.61976 9.03186 9.0964C8.83699 9.57303 8.78768 10.0967 8.89008 10.6013C8.99247 11.106 9.24201 11.569 9.60724 11.932C9.97246 12.295 10.437 12.5417 10.9423 12.641C11.4475 12.7403 11.9709 12.6878 12.4463 12.49C12.9217 12.2922 13.3279 11.9581 13.6137 11.5297C13.8995 11.1014 14.052 10.598 14.052 10.083C14.051 9.73962 13.9823 9.39977 13.8499 9.08291C13.7175 8.76604 13.524 8.47837 13.2805 8.23629C13.0369 7.9942 12.748 7.80246 12.4303 7.67202C12.1126 7.54157 11.7724 7.47498 11.429 7.47603ZM1 11.822C0.999275 9.4121 1.83325 7.07631 3.36017 5.21181C4.88709 3.34732 7.01269 2.06921 9.37549 1.59487C11.7383 1.12053 14.1925 1.47924 16.3207 2.60994C18.4489 3.74065 20.1198 5.57358 21.0493 7.79708C21.9787 10.0206 22.1093 12.4974 21.4189 14.8063C20.7285 17.1152 19.2597 19.1137 17.2623 20.4621C15.2648 21.8104 12.862 22.4253 10.4624 22.2021C8.06281 21.979 5.81456 20.9315 4.09998 19.238C3.11839 18.2684 2.33895 17.1136 1.80682 15.8407C1.2747 14.5677 1.00047 13.2018 1 11.822ZM17.15 18.363C16.7062 17.2053 15.9217 16.2095 14.9001 15.507C13.8785 14.8045 12.6678 14.4284 11.428 14.4284C10.1881 14.4284 8.97748 14.8045 7.95587 15.507C6.93426 16.2095 6.14977 17.2053 5.70599 18.363C7.29015 19.7487 9.3233 20.5125 11.428 20.5125C13.5327 20.5125 15.5659 19.7487 17.15 18.363ZM11.428 3.131C9.82136 3.13155 8.24636 3.57746 6.87787 4.41915C5.50937 5.26084 4.40099 6.46538 3.67578 7.89901C2.95058 9.33264 2.63692 10.9392 2.76971 12.5404C2.90251 14.1415 3.47651 15.6744 4.42798 16.969C5.28709 15.2924 6.71916 13.9795 8.46399 13.269C7.82174 12.6728 7.37399 11.897 7.17914 11.0426C6.98429 10.1882 7.05139 9.29486 7.37164 8.47915C7.6919 7.66343 8.25046 6.96311 8.97455 6.4695C9.69864 5.97589 10.5547 5.71187 11.431 5.71187C12.3074 5.71187 13.1634 5.97589 13.8875 6.4695C14.6115 6.96311 15.1701 7.66343 15.4904 8.47915C15.8106 9.29486 15.8777 10.1882 15.6829 11.0426C15.488 11.897 15.0403 12.6728 14.398 13.269C16.1428 13.9795 17.5749 15.2924 18.434 16.969C19.3855 15.6744 19.9595 14.1415 20.0923 12.5404C20.2251 10.9392 19.9114 9.33264 19.1862 7.89901C18.461 6.46538 17.3526 5.26084 15.9841 4.41915C14.6156 3.57746 13.0406 3.13155 11.434 3.131H11.428Z" fill="#6F91A8"/>
</svg>
