<svg width="21" height="21" viewBox="0 0 21 21" fill="none" xmlns="http://www.w3.org/2000/svg">
<g clip-path="url(#clip0_19:466)">
<path fill-rule="evenodd" clip-rule="evenodd" d="M6.63599 8.53198C6.88741 8.53198 7.12854 8.63191 7.30632 8.80969C7.4841 8.98748 7.58398 9.22856 7.58398 9.47998V10.428C7.58398 10.6799 7.4839 10.9216 7.30574 11.0997C7.12758 11.2779 6.88594 11.378 6.63399 11.378C6.38203 11.378 6.14039 11.2779 5.96223 11.0997C5.78407 10.9216 5.68398 10.6799 5.68398 10.428V9.47998C5.68398 9.35515 5.70864 9.23155 5.75653 9.11627C5.80442 9.00099 5.8746 8.89631 5.96306 8.80823C6.05151 8.72015 6.15649 8.65043 6.27197 8.60303C6.38745 8.55562 6.51116 8.53146 6.63599 8.53198ZM14.22 6.63202C14.4714 6.63202 14.7125 6.73188 14.8903 6.90967C15.0681 7.08745 15.168 7.32859 15.168 7.58002V10.424C15.168 10.676 15.0679 10.9176 14.8897 11.0958C14.7116 11.2739 14.4699 11.374 14.218 11.374C13.966 11.374 13.7244 11.2739 13.5462 11.0958C13.3681 10.9176 13.268 10.676 13.268 10.424V7.58002C13.2685 7.45544 13.2936 7.33217 13.3418 7.21729C13.39 7.1024 13.4603 6.99813 13.5488 6.91046C13.6373 6.82279 13.7423 6.75346 13.8576 6.70636C13.9729 6.65926 14.0964 6.63533 14.221 6.63599L14.22 6.63202ZM10.428 5.68402C10.6794 5.68402 10.9205 5.78389 11.0983 5.96167C11.2761 6.13945 11.376 6.38059 11.376 6.63202V10.424C11.376 10.676 11.2759 10.9176 11.0977 11.0958C10.9196 11.2739 10.6779 11.374 10.426 11.374C10.174 11.374 9.93239 11.2739 9.75423 11.0958C9.57607 10.9176 9.47598 10.676 9.47598 10.424V6.63202C9.47651 6.50753 9.50156 6.38435 9.54968 6.26953C9.59781 6.15472 9.66807 6.05049 9.75647 5.96283C9.84487 5.87517 9.94968 5.80576 10.0649 5.75861C10.1801 5.71145 10.3035 5.68746 10.428 5.68799V5.68402ZM2.84399 3.784V13.264H18.013V3.784H2.84399ZM10.428 0C10.6794 0 10.9205 0.0998644 11.0983 0.277649C11.2761 0.455433 11.376 0.696573 11.376 0.947998V1.896H19.908C20.1599 1.896 20.4016 1.9961 20.5797 2.17426C20.7579 2.35241 20.858 2.59405 20.858 2.84601C20.858 3.09796 20.7579 3.3396 20.5797 3.51776C20.4016 3.69592 20.1599 3.79602 19.908 3.79602V13.276C20.1599 13.276 20.4016 13.3761 20.5797 13.5543C20.7579 13.7324 20.858 13.9741 20.858 14.226C20.858 14.478 20.7579 14.7196 20.5797 14.8978C20.4016 15.0759 20.1599 15.176 19.908 15.176H11.376V18.968H12.324C12.5759 18.968 12.8176 19.0681 12.9957 19.2463C13.1739 19.4244 13.274 19.6661 13.274 19.918C13.274 20.17 13.1739 20.4116 12.9957 20.5897C12.8176 20.7679 12.5759 20.868 12.324 20.868H8.53198C8.28003 20.868 8.03839 20.7679 7.86023 20.5897C7.68207 20.4116 7.58199 20.17 7.58199 19.918C7.58199 19.6661 7.68207 19.4244 7.86023 19.2463C8.03839 19.0681 8.28003 18.968 8.53198 18.968H9.47998V15.176H0.947983C0.696027 15.176 0.454389 15.0759 0.27623 14.8978C0.0980703 14.7196 -0.00201416 14.478 -0.00201416 14.226C-0.00201416 13.9741 0.0980703 13.7324 0.27623 13.5543C0.454389 13.3761 0.696027 13.276 0.947983 13.276V3.79602C0.696027 3.79602 0.454389 3.69592 0.27623 3.51776C0.0980703 3.3396 -0.00201416 3.09796 -0.00201416 2.84601C-0.00201416 2.59405 0.0980703 2.35241 0.27623 2.17426C0.454389 1.9961 0.696027 1.896 0.947983 1.896H9.47998V0.947998C9.47998 0.696573 9.57986 0.455433 9.75764 0.277649C9.93543 0.0998644 10.1766 0 10.428 0Z" fill="#6F91A8"/>
</g>
<defs>
<clipPath id="clip0_19:466">
<rect width="20.857" height="20.857" fill="white"/>
</clipPath>
</defs>
</svg>
