<svg width="23" height="23" viewBox="0 0 23 23" fill="none" xmlns="http://www.w3.org/2000/svg">
<path fill-rule="evenodd" clip-rule="evenodd" d="M6.388 8.22403C6.38563 7.59814 6.5691 6.98564 6.9151 6.46408C7.2611 5.94252 7.75404 5.53532 8.3316 5.29416C8.90917 5.05299 9.54533 4.9887 10.1595 5.10934C10.7736 5.22999 11.3381 5.53016 11.7816 5.97189C12.225 6.41362 12.5273 6.97703 12.6503 7.59073C12.7733 8.20442 12.7114 8.8408 12.4725 9.41928C12.2335 9.99776 11.8282 10.4923 11.3079 10.8403C10.7877 11.1883 10.1759 11.374 9.54999 11.3741C9.13554 11.3748 8.72494 11.294 8.34174 11.1361C7.95853 10.9782 7.61021 10.7464 7.31659 10.4539C7.02297 10.1614 6.78989 9.81391 6.63055 9.4313C6.47122 9.0487 6.38879 8.63848 6.388 8.22403ZM9.54999 6.069C9.12429 6.07137 8.70882 6.19979 8.35602 6.43802C8.00321 6.67625 7.72883 7.01364 7.56757 7.40762C7.4063 7.8016 7.36539 8.23453 7.44989 8.65176C7.53439 9.069 7.74056 9.45186 8.04242 9.75204C8.34427 10.0522 8.72824 10.2563 9.14594 10.3385C9.56363 10.4207 9.99639 10.3773 10.3895 10.2138C10.7825 10.0504 11.1184 9.77414 11.3547 9.42001C11.5909 9.06589 11.717 8.64973 11.717 8.22403C11.7162 7.94024 11.6596 7.65937 11.5502 7.39749C11.4409 7.13561 11.281 6.89783 11.0798 6.69772C10.8785 6.49761 10.6399 6.3391 10.3774 6.23123C10.1149 6.12336 9.83377 6.06821 9.54999 6.069ZM1.758 9.55105C1.7582 7.78173 2.36068 6.06514 3.46625 4.68375C4.57181 3.30235 6.1146 2.33838 7.84088 1.95047C9.56716 1.56256 11.374 1.77384 12.9643 2.54947C14.5546 3.32509 15.8335 4.6189 16.5906 6.21805C17.3478 7.8172 17.5381 9.62638 17.1302 11.3481C16.7223 13.0697 15.7405 14.6013 14.3464 15.6908C12.9523 16.7802 11.2287 17.3627 9.45953 17.3424C7.69032 17.3221 5.98074 16.7002 4.612 15.579C3.71973 14.8479 3.00093 13.9279 2.50739 12.8853C2.01384 11.8427 1.75785 10.7035 1.758 9.55002V9.55105ZM13.629 14.989C13.5109 14.5244 13.2412 14.1123 12.8627 13.818C12.4842 13.5237 12.0185 13.364 11.539 13.364H7.56C7.08054 13.364 6.61478 13.5237 6.23627 13.818C5.85775 14.1123 5.58812 14.5244 5.47003 14.989C6.64691 15.8714 8.07812 16.3483 9.54901 16.3483C11.0199 16.3483 12.4511 15.8714 13.628 14.989H13.629ZM9.54999 2.754C8.21567 2.75521 6.91116 3.14896 5.79901 3.8862C4.68686 4.62344 3.81623 5.67161 3.29547 6.90012C2.77471 8.12862 2.6269 9.48317 2.87042 10.7951C3.11395 12.107 3.73802 13.3183 4.66498 14.278C4.9082 13.7108 5.31272 13.2276 5.82831 12.8883C6.34389 12.5491 6.94783 12.3689 7.565 12.37H11.544C12.1611 12.369 12.765 12.5493 13.2806 12.8885C13.7961 13.2277 14.2007 13.7109 14.444 14.278C15.371 13.3183 15.9951 12.107 16.2386 10.7951C16.4821 9.48317 16.3343 8.12862 15.8135 6.90012C15.2928 5.67161 14.4222 4.62344 13.31 3.8862C12.1978 3.14896 10.8933 2.75521 9.55902 2.754H9.54999Z" fill="#6F91A8"/>
<path fill-rule="evenodd" clip-rule="evenodd" d="M1 9.562C1.00046 8.19451 1.32846 6.84702 1.95656 5.6323C2.58466 4.41758 3.49458 3.37099 4.61017 2.5801C5.72576 1.78921 7.01455 1.27702 8.3687 1.08643C9.72285 0.895843 11.1029 1.03239 12.3935 1.48463C13.6841 1.93686 14.8475 2.69166 15.7865 3.68581C16.7255 4.67997 17.4127 5.88457 17.7906 7.19881C18.1685 8.51306 18.2261 9.89869 17.9586 11.2398C17.6911 12.5808 17.1062 13.8383 16.253 14.907L21.653 20.307C21.7413 20.3953 21.8114 20.5002 21.8592 20.6155C21.907 20.7309 21.9316 20.8546 21.9316 20.9795C21.9316 21.1044 21.907 21.2281 21.8592 21.3435C21.8114 21.4589 21.7413 21.5637 21.653 21.652C21.5647 21.7403 21.4598 21.8104 21.3445 21.8582C21.2291 21.906 21.1054 21.9306 20.9805 21.9306C20.8556 21.9306 20.7319 21.906 20.6165 21.8582C20.5012 21.8104 20.3963 21.7403 20.308 21.652L14.908 16.252C13.6482 17.2585 12.1298 17.8889 10.5275 18.0705C8.92527 18.2521 7.30429 17.9777 5.85114 17.2787C4.398 16.5797 3.17175 15.4846 2.31353 14.1194C1.45531 12.7543 0.999998 11.1745 1 9.562ZM9.562 2.902C8.24477 2.902 6.95713 3.29261 5.8619 4.02442C4.76667 4.75623 3.91305 5.79637 3.40897 7.01333C2.90489 8.23028 2.77299 9.56939 3.02997 10.8613C3.28695 12.1532 3.92125 13.3399 4.85267 14.2713C5.78409 15.2028 6.97078 15.8371 8.2627 16.094C9.55461 16.351 10.8937 16.2191 12.1107 15.715C13.3276 15.211 14.3678 14.3573 15.0996 13.2621C15.8314 12.1669 16.222 10.8792 16.222 9.562C16.2223 8.68723 16.0502 7.82098 15.7156 7.01272C15.381 6.20446 14.8905 5.47004 14.272 4.85139C13.6536 4.23274 12.9193 3.74198 12.1111 3.40716C11.303 3.07234 10.4368 2.9 9.562 2.9V2.902Z" fill="#6F91A8"/>
</svg>
