<svg width="23" height="23" viewBox="0 0 23 23" fill="none" xmlns="http://www.w3.org/2000/svg">
<path fill-rule="evenodd" clip-rule="evenodd" d="M11.2 6.09992C11.3116 6.09992 11.4221 6.1219 11.5253 6.16462C11.6284 6.20734 11.7221 6.27002 11.801 6.34895C11.88 6.42788 11.9426 6.52158 11.9853 6.6247C12.028 6.72783 12.05 6.83828 12.05 6.9499V10.79L15.98 13.9339C16.0697 14.0027 16.1449 14.0889 16.2009 14.1871C16.257 14.2853 16.2928 14.3937 16.3065 14.5059C16.3201 14.6182 16.3112 14.7321 16.2803 14.8409C16.2493 14.9497 16.197 15.0512 16.1263 15.1395C16.0557 15.2278 15.9681 15.3011 15.8687 15.3552C15.7694 15.4092 15.6602 15.4429 15.5477 15.4542C15.4351 15.4655 15.3215 15.4541 15.2134 15.421C15.1053 15.3878 15.0049 15.3334 14.918 15.2609L10.67 11.8609C10.5704 11.7812 10.49 11.6802 10.4348 11.5653C10.3796 11.4503 10.351 11.3245 10.351 11.197V6.94892C10.3513 6.72384 10.4408 6.50811 10.6 6.34895C10.7591 6.18979 10.9749 6.10019 11.2 6.09992ZM1 11.1999C1 9.18253 1.5982 7.21053 2.71899 5.53315C3.83978 3.85577 5.43282 2.54845 7.29663 1.77644C9.16044 1.00442 11.2113 0.802424 13.1899 1.19599C15.1685 1.58956 16.986 2.561 18.4125 3.9875C19.839 5.41399 20.8104 7.23143 21.204 9.21003C21.5975 11.1886 21.3956 13.2395 20.6236 15.1033C19.8516 16.9671 18.5442 18.5602 16.8668 19.681C15.1894 20.8018 13.2174 21.4 11.2 21.4C8.4948 21.4 5.90036 20.3253 3.98749 18.4124C2.07462 16.4996 1 13.9051 1 11.1999ZM2.74103 10.3499H3.54901C3.77445 10.3499 3.99062 10.4395 4.15002 10.5989C4.30943 10.7584 4.39899 10.9745 4.39899 11.1999C4.39899 11.4253 4.30943 11.6416 4.15002 11.801C3.99062 11.9604 3.77445 12.05 3.54901 12.05H2.74103C2.93752 14.0001 3.80185 15.8223 5.18774 17.2082C6.57364 18.5941 8.39593 19.4585 10.346 19.655V18.847C10.346 18.6216 10.4356 18.4053 10.595 18.2459C10.7544 18.0865 10.9705 17.9969 11.196 17.9969C11.4214 17.9969 11.6377 18.0865 11.7971 18.2459C11.9565 18.4053 12.046 18.6216 12.046 18.847V19.655C13.9961 19.4585 15.8183 18.5941 17.2042 17.2082C18.5901 15.8223 19.4545 14.0001 19.651 12.05H18.843C18.6176 12.05 18.4014 11.9604 18.2419 11.801C18.0825 11.6416 17.993 11.4253 17.993 11.1999C17.993 10.9745 18.0825 10.7584 18.2419 10.5989C18.4014 10.4395 18.6176 10.3499 18.843 10.3499H19.651C19.4545 8.39984 18.5901 6.57762 17.2042 5.19172C15.8183 3.80582 13.9961 2.94144 12.046 2.74494V3.55293C12.046 3.77836 11.9565 3.9946 11.7971 4.154C11.6377 4.31341 11.4214 4.4029 11.196 4.4029C10.9705 4.4029 10.7544 4.31341 10.595 4.154C10.4356 3.9946 10.346 3.77836 10.346 3.55293V2.74494C8.39654 2.94128 6.57478 3.80504 5.18896 5.19013C3.80315 6.57522 2.93839 8.39653 2.74103 10.3459V10.3499Z" fill="#6F91A8"/>
</svg>
