<svg width="17" height="23" viewBox="0 0 17 23" fill="none" xmlns="http://www.w3.org/2000/svg">
<path fill-rule="evenodd" clip-rule="evenodd" d="M12.481 3.56598H2.67401C2.55443 3.56998 2.43524 3.5499 2.32358 3.5069C2.21192 3.4639 2.11006 3.39891 2.02405 3.31574C1.93804 3.23256 1.86965 3.13292 1.82294 3.02277C1.77622 2.91261 1.75214 2.79415 1.75214 2.6745C1.75214 2.55485 1.77622 2.43639 1.82294 2.32623C1.86965 2.21608 1.93804 2.11644 2.02405 2.03326C2.11006 1.95009 2.21192 1.8851 2.32358 1.8421C2.43524 1.7991 2.55443 1.77901 2.67401 1.78302H12.481V3.56598ZM1.78101 5.19702V17.83C1.78101 18.3029 1.96885 18.7564 2.30322 19.0908C2.6376 19.4251 3.09111 19.613 3.564 19.613H14.264V5.349H2.67401C2.37069 5.35052 2.06932 5.30014 1.78299 5.20001L1.78101 5.19702ZM0 2.67401C-2.45612e-08 2.32277 0.0692002 1.97494 0.203644 1.65045C0.338087 1.32596 0.535129 1.03115 0.783539 0.782837C1.03195 0.53452 1.32686 0.33757 1.6514 0.203247C1.97594 0.068925 2.32375 -0.000131166 2.67499 1.87035e-07H12.482C12.9549 1.87035e-07 13.4084 0.18784 13.7428 0.522217C14.0771 0.856594 14.265 1.31014 14.265 1.78302V3.56598C14.4992 3.56598 14.731 3.61212 14.9473 3.70172C15.1637 3.79133 15.3602 3.92269 15.5258 4.08826C15.6913 4.25382 15.8227 4.45036 15.9123 4.66669C16.0019 4.88301 16.048 5.11485 16.048 5.349V19.613C16.048 19.8471 16.0019 20.079 15.9123 20.2953C15.8227 20.5117 15.6913 20.7082 15.5258 20.8738C15.3602 21.0393 15.1637 21.1706 14.9473 21.2603C14.731 21.3499 14.4992 21.396 14.265 21.396H3.565C2.61941 21.3957 1.71264 21.0199 1.0441 20.3512C0.375559 19.6825 -3.718e-08 18.7756 0 17.83V2.67401Z" fill="#6F91A8"/>
</svg>
