<svg width="21" height="21" viewBox="0 0 21 21" fill="none" xmlns="http://www.w3.org/2000/svg">
<g clip-path="url(#clip0_10:140)">
<rect width="21" height="21" fill="white"/>
<path fill-rule="evenodd" clip-rule="evenodd" d="M10.429 6.08303C9.91409 6.08619 9.41159 6.24174 8.98499 6.53011C8.55838 6.81849 8.22673 7.22675 8.03186 7.70339C7.83699 8.18003 7.78768 8.70368 7.89008 9.20833C7.99247 9.71298 8.24201 10.176 8.60724 10.539C8.97246 10.902 9.43699 11.1487 9.94226 11.248C10.4475 11.3473 10.9709 11.2948 11.4463 11.097C11.9217 10.8992 12.3279 10.5651 12.6137 10.1367C12.8995 9.70837 13.052 9.20495 13.052 8.69002C13.051 8.34662 12.9823 8.00677 12.8499 7.6899C12.7175 7.37304 12.524 7.08536 12.2805 6.84328C12.0369 6.6012 11.748 6.40946 11.4303 6.27901C11.1126 6.14857 10.7724 6.08198 10.429 6.08303V6.08303ZM4.72527e-07 10.429C-0.000724701 8.01909 0.833249 5.6833 2.36017 3.81881C3.88709 1.95431 6.01269 0.676204 8.37549 0.201864C10.7383 -0.272477 13.1925 0.0862297 15.3207 1.21694C17.4489 2.34765 19.1198 4.18058 20.0493 6.40407C20.9787 8.62757 21.1093 11.1044 20.4189 13.4133C19.7285 15.7222 18.2597 17.7207 16.2623 19.0691C14.2648 20.4174 11.862 21.0323 9.4624 20.8091C7.06281 20.586 4.81456 19.5385 3.09998 17.845C2.11839 16.8754 1.33895 15.7206 0.806824 14.4477C0.274695 13.1747 0.000470903 11.8088 4.72527e-07 10.429V10.429ZM16.15 16.97C15.7062 15.8123 14.9217 14.8165 13.9001 14.114C12.8785 13.4115 11.6678 13.0354 10.428 13.0354C9.18815 13.0354 7.97748 13.4115 6.95587 14.114C5.93426 14.8165 5.14977 15.8123 4.70599 16.97C6.29015 18.3557 8.3233 19.1195 10.428 19.1195C12.5327 19.1195 14.5659 18.3557 16.15 16.97V16.97ZM10.428 1.738C8.82136 1.73855 7.24636 2.18445 5.87787 3.02614C4.50937 3.86783 3.40099 5.07237 2.67578 6.506C1.95058 7.93963 1.63692 9.54624 1.76971 11.1474C1.90251 12.7485 2.47651 14.2814 3.42798 15.576C4.28709 13.8994 5.71916 12.5865 7.46399 11.876C6.82174 11.2798 6.37399 10.504 6.17914 9.64956C5.98429 8.79516 6.05139 7.90186 6.37164 7.08614C6.6919 6.27043 7.25046 5.57011 7.97455 5.0765C8.69864 4.58289 9.5547 4.31887 10.431 4.31887C11.3074 4.31887 12.1634 4.58289 12.8875 5.0765C13.6115 5.57011 14.1701 6.27043 14.4904 7.08614C14.8106 7.90186 14.8777 8.79516 14.6829 9.64956C14.488 10.504 14.0403 11.2798 13.398 11.876C15.1428 12.5865 16.5749 13.8994 17.434 15.576C18.3855 14.2814 18.9595 12.7485 19.0923 11.1474C19.2251 9.54624 18.9114 7.93963 18.1862 6.506C17.461 5.07237 16.3526 3.86783 14.9841 3.02614C13.6156 2.18445 12.0406 1.73855 10.434 1.738H10.428Z" fill="#6F91A8"/>
</g>
<defs>
<clipPath id="clip0_10:140">
<rect width="21" height="21" fill="white"/>
</clipPath>
</defs>
</svg>
