<svg width="21" height="21" viewBox="0 0 21 21" fill="none" xmlns="http://www.w3.org/2000/svg">
<g clip-path="url(#clip0_10:138)">
<path fill-rule="evenodd" clip-rule="evenodd" d="M6.63605 8.53198C6.88747 8.53198 7.1286 8.63191 7.30638 8.80969C7.48417 8.98748 7.58405 9.22856 7.58405 9.47998V10.428C7.58405 10.6799 7.48396 10.9216 7.3058 11.0997C7.12764 11.2779 6.886 11.378 6.63405 11.378C6.38209 11.378 6.14046 11.2779 5.9623 11.0997C5.78414 10.9216 5.68404 10.6799 5.68404 10.428V9.47998C5.68404 9.35515 5.7087 9.23155 5.75659 9.11627C5.80448 9.00099 5.87467 8.89631 5.96312 8.80823C6.05157 8.72015 6.15655 8.65043 6.27203 8.60303C6.38751 8.55562 6.51122 8.53146 6.63605 8.53198V8.53198ZM14.22 6.63202C14.4715 6.63202 14.7126 6.73188 14.8904 6.90967C15.0682 7.08745 15.168 7.32859 15.168 7.58002V10.424C15.168 10.676 15.068 10.9176 14.8898 11.0958C14.7116 11.2739 14.47 11.374 14.218 11.374C13.9661 11.374 13.7245 11.2739 13.5463 11.0958C13.3681 10.9176 13.2681 10.676 13.2681 10.424V7.58002C13.2686 7.45544 13.2936 7.33217 13.3418 7.21729C13.39 7.1024 13.4604 6.99813 13.5489 6.91046C13.6374 6.82279 13.7423 6.75346 13.8577 6.70636C13.973 6.65926 14.0965 6.63533 14.221 6.63599L14.22 6.63202ZM10.428 5.68402C10.6795 5.68402 10.9206 5.78389 11.0984 5.96167C11.2762 6.13945 11.3761 6.38059 11.3761 6.63202V10.424C11.3761 10.676 11.276 10.9176 11.0978 11.0958C10.9196 11.2739 10.678 11.374 10.426 11.374C10.1741 11.374 9.93245 11.2739 9.75429 11.0958C9.57613 10.9176 9.47604 10.676 9.47604 10.424V6.63202C9.47657 6.50753 9.50162 6.38435 9.54974 6.26953C9.59787 6.15472 9.66813 6.05049 9.75653 5.96283C9.84493 5.87517 9.94974 5.80576 10.065 5.75861C10.1802 5.71145 10.3035 5.68746 10.428 5.68799V5.68402ZM2.84405 3.784V13.264H18.013V3.784H2.84405ZM10.428 0C10.6795 0 10.9206 0.0998644 11.0984 0.277649C11.2762 0.455433 11.3761 0.696573 11.3761 0.947998V1.896H19.9081C20.16 1.896 20.4016 1.9961 20.5798 2.17426C20.758 2.35241 20.858 2.59405 20.858 2.84601C20.858 3.09796 20.758 3.3396 20.5798 3.51776C20.4016 3.69592 20.16 3.79602 19.9081 3.79602V13.276C20.16 13.276 20.4016 13.3761 20.5798 13.5543C20.758 13.7324 20.858 13.9741 20.858 14.226C20.858 14.478 20.758 14.7196 20.5798 14.8978C20.4016 15.0759 20.16 15.176 19.9081 15.176H11.3761V18.968H12.3241C12.576 18.968 12.8176 19.0681 12.9958 19.2463C13.174 19.4244 13.274 19.6661 13.274 19.918C13.274 20.17 13.174 20.4116 12.9958 20.5897C12.8176 20.7679 12.576 20.868 12.3241 20.868H8.53204C8.28009 20.868 8.03845 20.7679 7.86029 20.5897C7.68213 20.4116 7.58205 20.17 7.58205 19.918C7.58205 19.6661 7.68213 19.4244 7.86029 19.2463C8.03845 19.0681 8.28009 18.968 8.53204 18.968H9.48004V15.176H0.948044C0.696088 15.176 0.45445 15.0759 0.276291 14.8978C0.0981313 14.7196 -0.00195312 14.478 -0.00195312 14.226C-0.00195312 13.9741 0.0981313 13.7324 0.276291 13.5543C0.45445 13.3761 0.696088 13.276 0.948044 13.276V3.79602C0.696088 3.79602 0.45445 3.69592 0.276291 3.51776C0.0981313 3.3396 -0.00195312 3.09796 -0.00195312 2.84601C-0.00195312 2.59405 0.0981313 2.35241 0.276291 2.17426C0.45445 1.9961 0.696088 1.896 0.948044 1.896H9.48004V0.947998C9.48004 0.696573 9.57992 0.455433 9.75771 0.277649C9.93549 0.0998644 10.1766 0 10.428 0Z" fill="#6F91A8"/>
</g>
<defs>
<clipPath id="clip0_10:138">
<rect width="20.857" height="20.857" fill="white"/>
</clipPath>
</defs>
</svg>
