<svg width="38" height="38" viewBox="0 0 38 38" fill="none" xmlns="http://www.w3.org/2000/svg">
<g filter="url(#filter0_d_23:764)">
<circle cx="19" cy="19" r="15" transform="rotate(-180 19 19)" fill="#F7F8FD"/>
</g>
<path d="M24.5303 19.5303C24.8232 19.2374 24.8232 18.7626 24.5303 18.4697L19.7574 13.6967C19.4645 13.4038 18.9896 13.4038 18.6967 13.6967C18.4038 13.9896 18.4038 14.4645 18.6967 14.7574L22.9393 19L18.6967 23.2426C18.4038 23.5355 18.4038 24.0104 18.6967 24.3033C18.9896 24.5962 19.4645 24.5962 19.7574 24.3033L24.5303 19.5303ZM14 19.75L24 19.75L24 18.25L14 18.25L14 19.75Z" fill="#003463"/>
<defs>
<filter id="filter0_d_23:764" x="0" y="0" width="38" height="38" filterUnits="userSpaceOnUse" color-interpolation-filters="sRGB">
<feFlood flood-opacity="0" result="BackgroundImageFix"/>
<feColorMatrix in="SourceAlpha" type="matrix" values="0 0 0 0 0 0 0 0 0 0 0 0 0 0 0 0 0 0 127 0" result="hardAlpha"/>
<feOffset/>
<feGaussianBlur stdDeviation="2"/>
<feComposite in2="hardAlpha" operator="out"/>
<feColorMatrix type="matrix" values="0 0 0 0 0 0 0 0 0 0 0 0 0 0 0 0 0 0 0.25 0"/>
<feBlend mode="normal" in2="BackgroundImageFix" result="effect1_dropShadow_23:764"/>
<feBlend mode="normal" in="SourceGraphic" in2="effect1_dropShadow_23:764" result="shape"/>
</filter>
</defs>
</svg>
