<svg width="48" height="40" viewBox="0 0 48 40" fill="none" xmlns="http://www.w3.org/2000/svg">
<path d="M34.2319 7.444H46.2069" stroke="#6F91A8" stroke-width="2.5" stroke-linecap="round"/>
<path d="M40.219 1.457V13.432" stroke="#6F91A8" stroke-width="2.5" stroke-linecap="round"/>
<path fill-rule="evenodd" clip-rule="evenodd" d="M23.861 19.211C23.861 18.6444 24.0291 18.0904 24.3439 17.6193C24.6587 17.1481 25.1061 16.7809 25.6296 16.5641C26.1531 16.3472 26.7292 16.2905 27.285 16.401C27.8407 16.5116 28.3512 16.7845 28.7519 17.1851C29.1526 17.5858 29.4254 18.0963 29.5359 18.6521C29.6465 19.2078 29.5898 19.7839 29.3729 20.3074C29.1561 20.8309 28.7889 21.2783 28.3177 21.5932C27.8466 21.908 27.2927 22.076 26.726 22.076C25.9662 22.076 25.2374 21.7742 24.7001 21.2369C24.1628 20.6996 23.861 19.9708 23.861 19.211ZM32.361 35.471L23.861 26.971L19.561 31.271L9.53699 21.236L3.80701 26.966V34.966C3.80727 35.3457 3.95825 35.7098 4.22675 35.9783C4.49524 36.2468 4.8593 36.3977 5.23901 36.398H31.023C31.3145 36.3982 31.5992 36.3095 31.839 36.1436C32.0788 35.9778 32.2623 35.7428 32.365 35.47L32.361 35.471ZM5.242 13.481C4.8623 13.4813 4.49823 13.6322 4.22974 13.9007C3.96124 14.1692 3.81026 14.5333 3.81 14.913V22.913L7.51001 19.213C7.77597 18.9469 8.09173 18.7359 8.43927 18.5919C8.78681 18.4479 9.15933 18.3738 9.53552 18.3738C9.91171 18.3738 10.2842 18.4479 10.6318 18.5919C10.9793 18.7359 11.2951 18.9469 11.561 19.213L19.561 27.213L21.833 24.941C22.099 24.6749 22.4147 24.4639 22.7623 24.3199C23.1098 24.1759 23.4823 24.1018 23.8585 24.1018C24.2347 24.1018 24.6072 24.1759 24.9548 24.3199C25.3023 24.4639 25.6181 24.6749 25.884 24.941L32.453 31.51V14.916C32.4527 14.5363 32.3018 14.1722 32.0333 13.9037C31.7648 13.6352 31.4007 13.4843 31.021 13.484L5.242 13.481ZM0.942017 14.916C0.942017 14.3513 1.05325 13.7922 1.26935 13.2705C1.48544 12.7488 1.80219 12.2747 2.20148 11.8754C2.60077 11.4762 3.0748 11.1594 3.5965 10.9433C4.1182 10.7272 4.67732 10.616 5.242 10.616H31.026C32.1664 10.616 33.2602 11.069 34.0666 11.8754C34.873 12.6818 35.326 13.7756 35.326 14.916V34.97C35.326 36.1104 34.873 37.2042 34.0666 38.0106C33.2602 38.817 32.1664 39.27 31.026 39.27H5.242C4.10157 39.27 3.00788 38.817 2.20148 38.0106C1.39507 37.2042 0.942017 36.1104 0.942017 34.97V14.916Z" fill="#6F91A8"/>
</svg>
