<svg width="21" height="21" viewBox="0 0 21 21" fill="none" xmlns="http://www.w3.org/2000/svg">
<g clip-path="url(#clip0_19:570)">
<path fill-rule="evenodd" clip-rule="evenodd" d="M9.25299 9.25305C9.25326 9.00781 9.35082 8.77266 9.52423 8.59924C9.69765 8.42583 9.93273 8.32827 10.178 8.328H12.954C13.1994 8.328 13.4348 8.42556 13.6084 8.59912C13.782 8.77269 13.8795 9.00808 13.8795 9.25354C13.8795 9.499 13.782 9.73439 13.6084 9.90796C13.4348 10.0815 13.1994 10.179 12.954 10.179H10.178C9.93256 10.1787 9.69731 10.0811 9.52386 9.90747C9.35042 9.73384 9.25299 9.49847 9.25299 9.25305ZM9.25299 5.55298C9.25326 5.30773 9.35082 5.07258 9.52423 4.89917C9.69765 4.72576 9.93273 4.62832 10.178 4.62805H15.73C15.9754 4.62805 16.2108 4.72548 16.3844 4.89905C16.558 5.07261 16.6555 5.30801 16.6555 5.55347C16.6555 5.79892 16.558 6.03432 16.3844 6.20789C16.2108 6.38145 15.9754 6.479 15.73 6.479H10.178C10.0564 6.47887 9.93603 6.45474 9.82373 6.40808C9.71143 6.36142 9.60939 6.29311 9.5235 6.20703C9.4376 6.12095 9.36953 6.01889 9.32312 5.90649C9.27671 5.7941 9.25286 5.67361 9.25299 5.552V5.55298ZM7.40198 13.881V2.78101C7.40224 2.53576 7.4998 2.30061 7.67322 2.1272C7.84663 1.95378 8.08178 1.85622 8.32703 1.85596H17.58C17.8253 1.85622 18.0604 1.95378 18.2338 2.1272C18.4072 2.30061 18.5047 2.53576 18.505 2.78101V16.66C18.4892 17.1402 18.2874 17.5953 17.9421 17.9293C17.5969 18.2634 17.1354 18.4502 16.655 18.4502C16.1746 18.4502 15.7131 18.2634 15.3679 17.9293C15.0226 17.5953 14.8208 17.1402 14.805 16.66C14.805 15.9238 14.5125 15.2176 13.9919 14.697C13.4713 14.1764 12.7652 13.884 12.029 13.884L7.40198 13.881ZM2.776 15.7321C2.53076 15.7323 2.29561 15.8298 2.12219 16.0032C1.94878 16.1766 1.85128 16.4117 1.85101 16.657C1.85088 16.9001 1.89866 17.1408 1.99164 17.3655C2.08461 17.5901 2.22091 17.7943 2.39282 17.9662C2.56473 18.1381 2.76884 18.2743 2.99347 18.3673C3.2181 18.4603 3.45891 18.5082 3.70203 18.5081H13.45C13.1247 17.9455 12.9539 17.3068 12.955 16.657C12.9548 16.4117 12.8572 16.1766 12.6838 16.0032C12.5104 15.8298 12.2753 15.7323 12.03 15.7321H2.776ZM5.552 2.77795C5.552 2.4134 5.6238 2.0525 5.76331 1.7157C5.90281 1.3789 6.10728 1.07284 6.36505 0.815063C6.62283 0.557288 6.92889 0.352764 7.26569 0.213257C7.60249 0.0737498 7.96345 0.00195312 8.328 0.00195312H17.581C17.9455 0.00195312 18.3065 0.0737498 18.6433 0.213257C18.9801 0.352764 19.2862 0.557288 19.5439 0.815063C19.8017 1.07284 20.0062 1.3789 20.1457 1.7157C20.2852 2.0525 20.357 2.4134 20.357 2.77795V16.657C20.357 17.6383 19.9672 18.5794 19.2733 19.2733C18.5794 19.9672 17.6383 20.3571 16.657 20.3571H3.70001C2.71871 20.3571 1.77756 19.9672 1.08368 19.2733C0.389795 18.5794 0 17.6383 0 16.657C0 16.2924 0.0717967 15.9315 0.211304 15.5947C0.350811 15.2579 0.555274 14.9519 0.813049 14.6941C1.07082 14.4363 1.37688 14.2318 1.71368 14.0923C2.05048 13.9528 2.41145 13.881 2.776 13.881H5.552V2.77795Z" fill="#6F91A8"/>
</g>
<defs>
<clipPath id="clip0_19:570">
<rect width="20.356" height="20.356" fill="white"/>
</clipPath>
</defs>
</svg>
