<svg width="20" height="20" viewBox="0 0 20 20" fill="none" xmlns="http://www.w3.org/2000/svg">
<g clip-path="url(#clip0_19:568)">
<path fill-rule="evenodd" clip-rule="evenodd" d="M6.34302 12.6851C6.34328 12.4449 6.43879 12.2145 6.60864 12.0447C6.77849 11.8748 7.00882 11.7793 7.24902 11.7791H12.686C12.9263 11.7791 13.1568 11.8744 13.3267 12.0443C13.4966 12.2142 13.592 12.4448 13.592 12.6851C13.592 12.9253 13.4966 13.1558 13.3267 13.3257C13.1568 13.4956 12.9263 13.5909 12.686 13.5909H7.24902C7.00874 13.5909 6.77825 13.4956 6.60834 13.3257C6.43843 13.1558 6.34302 12.9253 6.34302 12.6851ZM6.34302 9.06104C6.34328 8.82083 6.43879 8.5905 6.60864 8.42065C6.77849 8.2508 7.00882 8.15529 7.24902 8.15503H9.96698C10.2073 8.15503 10.4378 8.2505 10.6077 8.42041C10.7776 8.59032 10.873 8.82075 10.873 9.06104C10.873 9.30132 10.7776 9.53175 10.6077 9.70166C10.4378 9.87157 10.2073 9.96704 9.96698 9.96704H7.24902C7.00882 9.96678 6.77849 9.87114 6.60864 9.70129C6.43879 9.53144 6.34328 9.30124 6.34302 9.06104ZM6.34302 5.43701C6.34302 5.19673 6.43843 4.96629 6.60834 4.79639C6.77825 4.62648 7.00874 4.53101 7.24902 4.53101H12.686C12.9263 4.53101 13.1568 4.62648 13.3267 4.79639C13.4966 4.96629 13.592 5.19673 13.592 5.43701C13.592 5.6773 13.4966 5.90773 13.3267 6.07764C13.1568 6.24754 12.9263 6.34302 12.686 6.34302H7.24902C7.00882 6.34275 6.77849 6.24724 6.60864 6.07739C6.43879 5.90754 6.34328 5.67722 6.34302 5.43701ZM3.625 1.81299V17.563L5.53302 16.609C5.78458 16.4835 6.06187 16.4181 6.34302 16.4181C6.62416 16.4181 6.90146 16.4835 7.15302 16.609L9.56201 17.809C9.68763 17.8723 9.82631 17.9053 9.96698 17.9053C10.1076 17.9053 10.2464 17.8723 10.372 17.809L12.781 16.609C13.0326 16.4835 13.3099 16.4181 13.591 16.4181C13.8721 16.4181 14.1494 16.4835 14.401 16.609L16.309 17.563V1.81299H3.625ZM0.00097712 0.906982C0.00097712 0.666696 0.09645 0.436265 0.266358 0.266357C0.436266 0.0964495 0.666697 0.000976562 0.906983 0.000976562H19.029C19.2693 0.000976677 19.4997 0.0964495 19.6696 0.266357C19.8395 0.436265 19.935 0.666696 19.935 0.906982C19.935 1.14727 19.8395 1.3777 19.6696 1.54761C19.4997 1.71752 19.2693 1.81299 19.029 1.81299H18.123V17.563C18.123 17.8718 18.0441 18.1755 17.8937 18.4453C17.7434 18.7151 17.5266 18.942 17.2639 19.1044C17.0012 19.2668 16.7013 19.3594 16.3928 19.3733C16.0842 19.3872 15.7772 19.322 15.501 19.184L13.593 18.23L11.185 19.4301C10.8075 19.6191 10.3912 19.7174 9.969 19.7174C9.54683 19.7174 9.13048 19.6191 8.75299 19.4301L6.34497 18.23L4.43701 19.184C4.16074 19.322 3.85376 19.3872 3.54523 19.3733C3.2367 19.3594 2.93683 19.2668 2.67413 19.1044C2.41144 18.942 2.19462 18.7151 2.04425 18.4453C1.89388 18.1755 1.81498 17.8718 1.815 17.563V1.81299H0.908997C0.789683 1.81338 0.671491 1.79017 0.561158 1.74475C0.450825 1.69933 0.350514 1.63262 0.266053 1.54834C0.181592 1.46406 0.11463 1.36389 0.0689703 1.25366C0.023311 1.14343 -0.000131791 1.02532 5.57272e-07 0.906006L0.00097712 0.906982Z" fill="#6F91A8"/>
</g>
<defs>
<clipPath id="clip0_19:568">
<rect width="19.934" height="19.721" fill="white"/>
</clipPath>
</defs>
</svg>
