<svg width="20" height="21" viewBox="0 0 20 21" fill="none" xmlns="http://www.w3.org/2000/svg">
<g clip-path="url(#clip0_19:566)">
<path fill-rule="evenodd" clip-rule="evenodd" d="M9.82204 19.947C9.81477 19.7027 9.90469 19.4655 10.0721 19.2874C10.2395 19.1093 10.4707 19.0048 10.715 18.997H12.5C12.7413 19.0127 12.9676 19.1196 13.133 19.296C13.2983 19.4725 13.3904 19.7052 13.3904 19.947C13.3904 20.1888 13.2983 20.4216 13.133 20.598C12.9676 20.7745 12.7413 20.8813 12.5 20.897H10.714C10.4699 20.8889 10.239 20.7844 10.0718 20.6063C9.90456 20.4283 9.81476 20.1912 9.82204 19.947ZM18.751 16.147C18.9953 16.1548 19.2266 16.2593 19.394 16.4374C19.5614 16.6155 19.6513 16.8527 19.644 17.097V18.047C19.6659 18.7799 19.396 19.4914 18.8938 20.0256C18.3915 20.5597 17.6979 20.8727 16.965 20.896H16.072C15.8307 20.8803 15.6044 20.7734 15.4391 20.597C15.2737 20.4205 15.1817 20.1878 15.1817 19.946C15.1817 19.7042 15.2737 19.4714 15.4391 19.295C15.6044 19.1185 15.8307 19.0116 16.072 18.996H16.965C17.2093 18.9881 17.4405 18.8837 17.608 18.7056C17.7754 18.5275 17.8653 18.2903 17.858 18.046V17.096C17.851 16.8519 17.9411 16.6149 18.1085 16.437C18.2758 16.2591 18.5069 16.1548 18.751 16.147ZM18.751 10.447C18.9953 10.4549 19.2266 10.5593 19.394 10.7374C19.5614 10.9155 19.6513 11.1527 19.644 11.397V13.297C19.6522 13.4193 19.6352 13.542 19.594 13.6574C19.5529 13.7729 19.4884 13.8786 19.4047 13.9681C19.321 14.0577 19.2197 14.1291 19.1073 14.1779C18.9949 14.2266 18.8736 14.2518 18.751 14.2518C18.6285 14.2518 18.5072 14.2266 18.3948 14.1779C18.2823 14.1291 18.1811 14.0577 18.0974 13.9681C18.0136 13.8786 17.9492 13.7729 17.908 13.6574C17.8669 13.542 17.8498 13.4193 17.858 13.297V11.397C17.851 11.1528 17.9411 10.9159 18.1085 10.738C18.2758 10.5601 18.5069 10.4558 18.751 10.448V10.447ZM3.57204 11.397C3.56477 11.1527 3.65469 10.9155 3.8221 10.7374C3.98952 10.5593 4.22073 10.4549 4.46503 10.447H11.608C11.8493 10.4627 12.0756 10.5696 12.241 10.746C12.4063 10.9225 12.4984 11.1552 12.4984 11.397C12.4984 11.6388 12.4063 11.8715 12.241 12.048C12.0756 12.2244 11.8493 12.3313 11.608 12.347H4.46503C4.22127 12.3391 3.99051 12.2352 3.82319 12.0577C3.65586 11.8803 3.56558 11.6438 3.57204 11.4V11.397ZM3.57204 7.59698C3.56477 7.35267 3.65469 7.11547 3.8221 6.93738C3.98952 6.75928 4.22073 6.65481 4.46503 6.64697H8.03704C8.27834 6.66264 8.50464 6.76955 8.66999 6.94598C8.83534 7.12242 8.92736 7.35518 8.92736 7.59698C8.92736 7.83879 8.83534 8.07155 8.66999 8.24799C8.50464 8.42442 8.27834 8.53133 8.03704 8.547H4.46503C4.22127 8.53916 3.99051 8.43513 3.82319 8.25769C3.65586 8.08025 3.56558 7.84378 3.57204 7.59998V7.59698ZM2.67904 1.89697C2.43474 1.90481 2.20352 2.00928 2.03611 2.18738C1.8687 2.36547 1.77876 2.60267 1.78603 2.84698V14.247C1.77876 14.4913 1.8687 14.7285 2.03611 14.9066C2.20352 15.0847 2.43474 15.1892 2.67904 15.197H13.394C13.6383 15.1892 13.8696 15.0847 14.037 14.9066C14.2044 14.7285 14.2943 14.4913 14.287 14.247V2.84698C14.2943 2.60267 14.2044 2.36547 14.037 2.18738C13.8696 2.00928 13.6383 1.90481 13.394 1.89697H2.67904ZM3.71478e-05 2.84698C-0.0212472 2.11446 0.248826 1.40339 0.751029 0.86969C1.25323 0.335994 1.94658 0.0232537 2.67904 0H13.394C14.1269 0.0232494 14.8205 0.33629 15.3228 0.870422C15.825 1.40455 16.0949 2.11614 16.073 2.849V3.79901H16.966C17.699 3.82226 18.3928 4.13545 18.8951 4.6698C19.3974 5.20415 19.6671 5.91596 19.645 6.64899V7.599C19.6532 7.7213 19.6362 7.84396 19.595 7.95941C19.5539 8.07486 19.4894 8.18062 19.4057 8.27014C19.322 8.35966 19.2208 8.43107 19.1083 8.47986C18.9959 8.52865 18.8746 8.55377 18.752 8.55377C18.6295 8.55377 18.5082 8.52865 18.3958 8.47986C18.2833 8.43107 18.1821 8.35966 18.0984 8.27014C18.0147 8.18062 17.9502 8.07486 17.909 7.95941C17.8679 7.84396 17.8508 7.7213 17.859 7.599V6.64899C17.8663 6.40467 17.7764 6.16748 17.609 5.98938C17.4416 5.81128 17.2103 5.70681 16.966 5.69897H16.073V14.248C16.0951 14.981 15.8254 15.6929 15.3231 16.2272C14.8209 16.7616 14.127 17.0748 13.394 17.098H5.35804V18.048C5.35076 18.2923 5.44069 18.5295 5.6081 18.7076C5.77551 18.8857 6.00674 18.9902 6.25104 18.998H7.14403C7.38534 19.0137 7.61163 19.1206 7.77698 19.297C7.94234 19.4734 8.03435 19.7062 8.03435 19.948C8.03435 20.1898 7.94234 20.4226 7.77698 20.599C7.61163 20.7754 7.38534 20.8823 7.14403 20.898H6.25104C5.51823 20.8748 4.82456 20.5617 4.3223 20.0276C3.82004 19.4935 3.55022 18.7819 3.57204 18.049V17.099H2.67904C1.94604 17.0758 1.25223 16.7626 0.749946 16.2282C0.247657 15.6939 -0.0220568 14.9821 3.71478e-05 14.249V2.84698Z" fill="#6F91A8"/>
</g>
<defs>
<clipPath id="clip0_19:566">
<rect width="19.644" height="20.896" fill="white"/>
</clipPath>
</defs>
</svg>
